<?xml version="1.0" standalone="no"?>
<!DOCTYPE svg PUBLIC "-//W3C//DTD SVG 1.1//EN" "http://www.w3.org/Graphics/SVG/1.1/DTD/svg11.dtd" >
<svg>
<defs>
<font id="HelveticaNeue-Light" horiz-adv-x="556" >
  <font-face
    font-family="HelveticaNeueLT Pro 45 Lt"
    font-weight="300"
    font-stretch="normal"
    units-per-em="1000"
    panose-1="2 11 4 3 2 2 2 2 2 4"
    ascent="714"
    descent="-286"
    x-height="516"
    cap-height="714"
    bbox="-166 -214 1050 967"
    underline-thickness="50"
    underline-position="-50"
    unicode-range="U+000D-U+FB02"
  />
<missing-glyph horiz-adv-x="512"
d="M222 117h56v67h-56v-67zM225 234h46q0 52 6 72q6 19 43 52q37 34 50 60t13 60q0 59 -35 95t-89 36q-56 0 -92 -34t-43 -103l50 -8q11 95 82 95q31 0 53.5 -24.5t22.5 -60.5q0 -20 -9.5 -37t-40.5 -46q-31 -31 -46 -59q-13 -25 -13 -81zM462 50h-412v617h412v-617z
M512 718h-512v-718h512v718z" />
    <glyph glyph-name="IJ" unicode="IJ" horiz-adv-x="727"
d="M77 0v714h68v-714h-68zM587 228v486h68v-515q0 -111 -47.5 -162.5t-160.5 -51.5q-199 0 -199 244h68q0 -3 0.5 -19.5t1 -23.5t2.5 -24t5 -25.5l8 -23t11.5 -22.5t17 -19t23.5 -16t30 -9t38 -4q78 0 106 41.5t28 143.5z" />
    <glyph glyph-name="ij" unicode="ij" horiz-adv-x="373"
d="M61 613v101h63v-101h-63zM61 0v516h63v-516h-63zM249 613v101h63v-101h-63zM249 -63v579h63v-564q0 -143 -110 -143q-8 0 -22 1t-22 1v52q22 -2 34 -1q34 0 45.5 19t11.5 56z" />
    <glyph glyph-name="napostrophe" unicode="&#x22;n" horiz-adv-x="555"
d="M77 0v516h63v-89h2q18 46 64 75t101 29q104 0 146.5 -50.5t42.5 -148.5v-332h-63v322q0 156 -131 156q-74 0 -117 -49.5t-45 -127.5v-301h-63zM22 805h86v-80q0 -69 -86 -73v28q36 7 39 34h-39v91z" />
    <glyph glyph-name="fi" unicode="fi" horiz-adv-x="444"
d="M320 613v101h63v-101h-63zM94 0v463h-88v53h88v47q0 74 27 112.5t98 38.5q26 0 53 -4v-54q-28 5 -46 5q-20 0 -33.5 -5.5t-20.5 -13t-10.5 -23t-4 -26t-0.5 -32.5v-45h102v-53h-102v-463h-63zM320 0v516h63v-516h-63z" />
    <glyph glyph-name="fl" unicode="fl" horiz-adv-x="444"
d="M320 0v714h63v-714h-63zM94 0v463h-88v53h88v47q0 74 27 112.5t98 38.5q26 0 53 -4v-54q-28 5 -46 5q-20 0 -33.5 -5.5t-20.5 -13t-10.5 -23t-4 -26t-0.5 -32.5v-45h102v-53h-102v-463h-63z" />
    <glyph glyph-name=".notdef" horiz-adv-x="512"
d="M222 117h56v67h-56v-67zM225 234h46q0 52 6 72q6 19 43 52q37 34 50 60t13 60q0 59 -35 95t-89 36q-56 0 -92 -34t-43 -103l50 -8q11 95 82 95q31 0 53.5 -24.5t22.5 -60.5q0 -20 -9.5 -37t-40.5 -46q-31 -31 -46 -59q-13 -25 -13 -81zM462 50h-412v617h412v-617z
M512 718h-512v-718h512v718z" />
    <glyph glyph-name=".null" horiz-adv-x="500"
 />
    <glyph glyph-name=".null" horiz-adv-x="500"
 />
    <glyph glyph-name="nonmarkingreturn" horiz-adv-x="333"
 />
    <glyph glyph-name="CR" unicode="&#xd;" horiz-adv-x="0"
 />
    <glyph glyph-name="space" unicode=" " horiz-adv-x="278"
 />
    <glyph glyph-name="exclam" unicode="!" horiz-adv-x="241"
d="M163 0h-84v106h84v-106zM102 178l-15 323v213h68v-213l-15 -323h-38z" />
    <glyph glyph-name="quotedbl" unicode="&#x22;" horiz-adv-x="370"
d="M220 471v243h63v-243h-63zM87 471v243h63v-243h-63z" />
    <glyph glyph-name="numbersign" unicode="#"
d="M364 424h-141l-22 -156h141zM497 268v-45h-111l-31 -223h-50l31 223h-141l-31 -223h-50l31 223h-110v45h116l22 156h-110v45h116l31 222h50l-31 -222h141l31 222h50l-31 -222h105v-45h-111l-22 -156h105z" />
    <glyph glyph-name="dollar" unicode="$"
d="M29 228h63q1 -171 165 -190v296q-49 10 -81.5 22t-64.5 34t-48 58t-16 86q0 88 60.5 141.5t149.5 53.5v78h39v-78q90 0 152 -60.5t60 -156.5h-63q-1 75 -42 119.5t-107 44.5v-288q51 -11 86 -23t71.5 -34.5t55 -59t18.5 -86.5q0 -94 -68.5 -147t-162.5 -53v-85h-39v86
q-116 11 -170 69t-58 173zM257 397v279q-65 0 -106 -37t-41 -112q0 -33 11 -56t36 -37.5t44 -21t56 -15.5zM296 326v-288q70 0 119 36.5t49 109.5q0 34 -14 59t-42 41t-52 24.5t-60 17.5z" />
    <glyph glyph-name="percent" unicode="%" horiz-adv-x="889"
d="M228 706q81 0 120 -51.5t39 -137.5t-39 -137.5t-120 -51.5t-120 51.5t-39 137.5t39 137.5t120 51.5zM667 318q-40 0 -65 -24t-33 -54t-8 -67q0 -36 8 -66t33 -53.5t65 -23.5q56 0 81 43t25 100q0 58 -25 101.5t-81 43.5zM667 363q81 0 120 -51.5t39 -137.5t-39 -137.5
t-120 -51.5t-120 51.5t-39 137.5t39 137.5t120 51.5zM190 -34l453 759h47l-452 -759h-48zM228 661q-40 0 -65 -24t-33 -54t-8 -67q0 -36 8 -66t33 -53.5t65 -23.5q56 0 81 43t25 100q0 58 -25 101.5t-81 43.5z" />
    <glyph glyph-name="ampersand" unicode="&#x26;" horiz-adv-x="611"
d="M284 661q-41 0 -68 -24.5t-27 -67.5q0 -23 15.5 -53t28 -46.5t36.5 -44.5q32 21 52 37t39 45t19 62q0 43 -27 67.5t-68 24.5zM541 0l-76 93q-86 -108 -210 -108q-95 0 -155.5 53t-60.5 147q0 118 175 212l-16.5 21l-18.5 23.5t-16 22t-15.5 25.5l-10.5 24t-8.5 28
t-2.5 28q0 64 45.5 104.5t112.5 40.5t112.5 -40.5t45.5 -104.5q0 -60 -36.5 -101.5t-103.5 -83.5l156 -188q21 43 21 120h63q0 -93 -42 -171l120 -145h-79zM426 140l-178 216q-146 -78 -146 -177q0 -61 46.5 -101t108.5 -40q97 0 169 102z" />
    <glyph glyph-name="quotesingle" unicode="'" horiz-adv-x="278"
d="M108 471v243h63v-243h-63z" />
    <glyph glyph-name="parenleft" unicode="(" horiz-adv-x="241"
d="M242 -191h-50q-71 118 -106 225.5t-35 231.5q0 245 141 463h50q-128 -206 -128 -486q0 -107 35 -224.5t93 -209.5z" />
    <glyph glyph-name="parenright" unicode=")" horiz-adv-x="241"
d="M-1 729h50q71 -118 106 -225.5t35 -231.5q0 -245 -141 -463h-50q128 206 128 486q0 106 -35 221t-93 213z" />
    <glyph glyph-name="asterisk" unicode="*" horiz-adv-x="352"
d="M142 556l-115 39l14 37l115 -41v123h39v-123l115 41l15 -37l-118 -39l72 -98l-32 -23l-73 100l-73 -100l-32 23z" />
    <glyph glyph-name="plus" unicode="+" horiz-adv-x="600"
d="M274 278v225h53v-225h225v-53h-225v-225h-53v225h-225v53h225z" />
    <glyph glyph-name="comma" unicode="," horiz-adv-x="278"
d="M97 106h84v-107q0 -47 -23 -86t-65 -50v43q22 8 35 38t11 56h-42v106z" />
    <glyph glyph-name="hyphen" unicode="-" horiz-adv-x="370"
d="M310 246h-250v58h250v-58z" />
    <glyph glyph-name="period" unicode="." horiz-adv-x="278"
d="M181 0h-84v106h84v-106z" />
    <glyph glyph-name="slash" unicode="/" horiz-adv-x="333"
d="M41 -15h-54l308 744h51z" />
    <glyph glyph-name="zero" unicode="0"
d="M278 706q59 0 103.5 -22.5t70.5 -57t42.5 -84t22 -96t5.5 -100.5t-5.5 -101t-22 -96.5t-42.5 -84t-70.5 -57t-103.5 -22.5t-103.5 22.5t-70.5 57t-42.5 84t-22 96t-5.5 100.5t5.5 101t22 96.5t42.5 84t70.5 57t103.5 22.5zM278 653q-181 0 -181 -307q0 -308 181 -308
t181 308q0 307 -181 307z" />
    <glyph glyph-name="one" unicode="1"
d="M97 520v45q41 1 62 3t48.5 9t41.5 21t26.5 39t18.5 63h51v-700h-63v520h-185z" />
    <glyph glyph-name="two" unicode="2"
d="M497 58v-58h-461q1 59 24.5 107t63 83t80 62.5l90 61.5t79.5 64q58 58 58 132q0 66 -45.5 104.5t-111.5 38.5q-81 0 -120.5 -55.5t-37.5 -139.5h-63q-2 112 55.5 180t168.5 68q95 0 156 -51.5t61 -145.5q0 -80 -47 -138t-129 -111q-7 -5 -44.5 -28.5t-56 -37t-46.5 -37
t-43 -48.5t-20 -51h389z" />
    <glyph glyph-name="three" unicode="3"
d="M33 223h63q-4 -84 43.5 -134.5t131.5 -50.5q73 0 126 41.5t53 113.5t-47 110t-121 38h-53v53h53q55 0 98.5 32.5t43.5 94.5q0 66 -43 99t-110 33q-77 0 -119 -49t-40 -128h-63q0 101 60.5 165.5t160.5 64.5q90 0 153.5 -45.5t63.5 -132.5q0 -58 -31 -99.5t-87 -55.5v-2
q68 -11 106 -57t38 -116q0 -99 -69.5 -156t-171.5 -57q-111 0 -179 64t-60 174z" />
    <glyph glyph-name="four" unicode="4"
d="M87 227h266v381h-2zM30 174v61l324 465h57v-473h105v-53h-105v-174h-58v174h-323z" />
    <glyph glyph-name="five" unicode="5"
d="M36 200h63q2 -72 50.5 -117t121.5 -45q79 0 127 56t48 135q0 78 -50.5 130t-128.5 52q-101 0 -156 -83h-54l68 363h350v-58h-306l-45 -232l2 -2q26 30 66 47.5t82 17.5q107 0 171 -67.5t64 -174.5q0 -101 -71 -169t-172 -68q-99 0 -163.5 58.5t-66.5 156.5z" />
    <glyph glyph-name="six" unicode="6"
d="M505 523h-63q-8 59 -47 94.5t-99 35.5q-58 0 -98.5 -30t-60 -80.5t-27 -99t-7.5 -103.5h2q25 52 75.5 84t110.5 32q104 0 167.5 -65.5t63.5 -168.5t-66.5 -170t-170.5 -67q-129 0 -187 85t-58 287q0 33 3.5 69t19 89t40.5 93t73.5 69t113.5 29q193 0 215 -183zM290 403
q-80 0 -127 -52.5t-47 -132.5t43.5 -130t131.5 -50q73 0 120.5 52.5t47.5 127.5q0 79 -45.5 132t-123.5 53z" />
    <glyph glyph-name="seven" unicode="7"
d="M51 633v58h450v-58q-32 -33 -62 -69.5t-70.5 -99t-70 -128t-52.5 -154.5t-28 -182h-68q12 179 77.5 323.5t210.5 309.5h-387z" />
    <glyph glyph-name="eight" unicode="8"
d="M278 401q62 -2 105.5 32t43.5 98q0 58 -41.5 90t-107.5 32q-62 0 -106 -32.5t-44 -89.5q0 -66 44.5 -99t105.5 -31zM490 531q0 -57 -30 -97.5t-84 -56.5v-2q68 -14 105.5 -61t37.5 -118q0 -101 -68.5 -156t-172.5 -55t-172.5 55t-68.5 156q2 70 40 118.5t102 60.5v2
q-114 36 -114 154q0 84 63 129.5t149 45.5t149.5 -45.5t63.5 -129.5zM278 38q79 0 128.5 40t49.5 118q0 72 -52 113t-126 39q-76 2 -127 -38t-51 -114q0 -76 50 -117t128 -41z" />
    <glyph glyph-name="nine" unicode="9"
d="M51 168h63q8 -59 47 -94.5t99 -35.5q58 0 98.5 30t60 80.5t27 99t7.5 103.5h-2q-25 -52 -75.5 -84t-110.5 -32q-104 0 -167.5 65.5t-63.5 168.5t66.5 170t170.5 67q129 0 187 -85t58 -287q0 -33 -3.5 -69t-19 -89t-40.5 -93t-73.5 -69t-113.5 -29q-193 0 -215 183z
M266 288q80 0 127 52.5t47 132.5t-43.5 130t-131.5 50q-73 0 -120.5 -52.5t-47.5 -127.5q0 -79 45.5 -132t123.5 -53z" />
    <glyph glyph-name="colon" unicode=":" horiz-adv-x="278"
d="M181 0h-84v106h84v-106zM181 394h-84v106h84v-106z" />
    <glyph glyph-name="semicolon" unicode=";" horiz-adv-x="278"
d="M181 394h-84v106h84v-106zM97 106h84v-107q0 -47 -23 -86t-65 -50v43q22 8 35 38t11 56h-42v106z" />
    <glyph glyph-name="less" unicode="&#x3c;" horiz-adv-x="600"
d="M554 47v-55l-508 234v54l508 234v-55l-446 -206z" />
    <glyph glyph-name="equal" unicode="=" horiz-adv-x="600"
d="M552 181v-53h-503v53h503zM552 378v-53h-503v53h503z" />
    <glyph glyph-name="greater" unicode="&#x3e;" horiz-adv-x="600"
d="M46 47l446 206l-446 206v55l508 -234v-54l-508 -234v55z" />
    <glyph glyph-name="question" unicode="?" horiz-adv-x="537"
d="M231 0v106h84v-106h-84zM117 494h-63q0 107 60 171t167 64q86 0 144.5 -50.5t58.5 -134.5q0 -52 -22 -90.5t-65 -79.5l-31 -30.5l-24.5 -24t-15 -18.5t-12 -21t-5 -23.5t-4.5 -33t-1 -44.5h-63q-2 85 21 127t94 106q65 61 65 129q0 59 -42 97t-101 38q-79 0 -121 -51
t-40 -131z" />
    <glyph glyph-name="at" unicode="@" horiz-adv-x="800"
d="M614 544l-96 -288q-25 -83 13 -83q65 0 117 80.5t52 167.5q0 120 -82 191.5t-202 71.5q-138 0 -227 -95.5t-89 -235.5q0 -136 91 -229.5t227 -93.5q74 0 144.5 36t113.5 97h51q-45 -81 -130 -129.5t-179 -48.5q-161 0 -266 107.5t-105 267.5q0 156 106.5 262.5
t260.5 106.5q146 0 242.5 -87t96.5 -224q0 -117 -72.5 -203.5t-159.5 -86.5q-27 0 -45.5 17.5t-21.5 49.5h-2q-64 -66 -127 -66q-60 0 -96 42t-36 103q0 70 29 135.5t84.5 109.5t123.5 44q74 0 106 -84l25 65h53zM426 510q-71 0 -120.5 -76.5t-49.5 -154.5q0 -44 23 -70.5
t60 -26.5q64 0 115 81t51 154q0 35 -25 64t-54 29z" />
    <glyph glyph-name="A" unicode="A" horiz-adv-x="630"
d="M316 646l-143 -366h281zM-7 0l288 714h76l280 -714h-73l-87 222h-325l-86 -222h-73z" />
    <glyph glyph-name="B" unicode="B" horiz-adv-x="667"
d="M140 656v-255h234q78 0 119.5 34t41.5 87q0 134 -161 134h-234zM72 0v714h302q65 0 113.5 -15t82 -56t33.5 -104q0 -57 -34.5 -102.5t-89.5 -57.5v-2q69 -9 110 -56.5t41 -117.5q0 -25 -4 -47.5t-19.5 -52.5t-41.5 -51.5t-75.5 -36.5t-115.5 -15h-302zM140 343v-285h234
q188 0 188 147q0 68 -48.5 103t-139.5 35h-234z" />
    <glyph glyph-name="C" unicode="C" horiz-adv-x="704"
d="M662 498h-68q-18 81 -78.5 127t-140.5 46q-68 0 -121 -27t-84.5 -72t-47.5 -99.5t-16 -115.5t16 -115.5t47.5 -99.5t84.5 -72t121 -27q96 0 157.5 65t71.5 164h68q-14 -133 -93 -210t-204 -77q-82 0 -147.5 30.5t-106 82.5t-62 118t-21.5 141t21.5 141t62 118t106 82.5
t147.5 30.5q108 0 190.5 -62t96.5 -169z" />
    <glyph glyph-name="D" unicode="D" horiz-adv-x="685"
d="M72 0v714h247q328 -8 328 -357t-328 -357h-247zM140 656v-598h145q155 0 224.5 70t69.5 229t-69.5 229t-224.5 70h-145z" />
    <glyph glyph-name="E" unicode="E" horiz-adv-x="593"
d="M72 0v714h493v-58h-425v-258h398v-58h-398v-282h430v-58h-498z" />
    <glyph glyph-name="F" unicode="F" horiz-adv-x="537"
d="M72 0v714h453v-58h-385v-258h342v-58h-342v-340h-68z" />
    <glyph glyph-name="G" unicode="G" horiz-adv-x="741"
d="M682 363v-363h-49l-9 130h-2q-34 -73 -99.5 -109t-147.5 -36t-147.5 30.5t-106 82.5t-62 118t-21.5 141t21.5 141t62 118t106 82.5t147.5 30.5q116 0 197 -61.5t101 -175.5h-68q-7 67 -71 123t-159 56q-68 0 -121 -27t-84.5 -72t-47.5 -99.5t-16 -115.5t16 -115.5
t47.5 -99.5t84.5 -72t121 -27q116 0 182.5 73t64.5 189h-243v58h303z" />
    <glyph glyph-name="H" unicode="H" horiz-adv-x="704"
d="M72 0v714h68v-310h424v310h68v-714h-68v346h-424v-346h-68z" />
    <glyph glyph-name="I" unicode="I" horiz-adv-x="222"
d="M77 0v714h68v-714h-68z" />
    <glyph glyph-name="J" unicode="J" horiz-adv-x="500"
d="M360 228v486h68v-515q0 -111 -47.5 -162.5t-160.5 -51.5q-199 0 -199 244h68q0 -3 0.5 -19.5t1 -23.5t2.5 -24t5 -25.5l8 -23t11.5 -22.5t17 -19t23.5 -16t30 -9t38 -4q78 0 106 41.5t28 143.5z" />
    <glyph glyph-name="K" unicode="K" horiz-adv-x="648"
d="M72 0v714h68v-384l415 384h92l-319 -295l334 -419h-88l-297 372l-137 -127v-245h-68z" />
    <glyph glyph-name="L" unicode="L" horiz-adv-x="537"
d="M72 0v714h68v-656h400v-58h-468z" />
    <glyph glyph-name="M" unicode="M" horiz-adv-x="833"
d="M70 0v714h100l247 -626l246 626h100v-714h-68v617h-2l-244 -617h-64l-245 617h-2v-617h-68z" />
    <glyph glyph-name="N" unicode="N" horiz-adv-x="704"
d="M71 0v714h76l416 -604h2v604h68v-714h-76l-416 604h-2v-604h-68z" />
    <glyph glyph-name="O" unicode="O" horiz-adv-x="741"
d="M102 357q0 -61 16 -115.5t47.5 -99.5t84.5 -72t121 -27t121 27t84 72t47 99.5t16 115.5t-16 115.5t-47 99.5t-84 72t-121 27t-121 -27t-84.5 -72t-47.5 -99.5t-16 -115.5zM34 357q0 75 21.5 141t62 118t106 82.5t147.5 30.5q108 0 185.5 -53t114 -135.5t36.5 -183.5
t-36.5 -183.5t-114 -135.5t-185.5 -53q-82 0 -147.5 30.5t-106 82.5t-62 118t-21.5 141z" />
    <glyph glyph-name="P" unicode="P" horiz-adv-x="630"
d="M140 656v-292h234q74 0 116.5 37t42.5 109t-42.5 109t-116.5 37h-234zM72 0v714h317q97 0 154.5 -54t57.5 -150t-57.5 -150t-154.5 -54h-249v-306h-68z" />
    <glyph glyph-name="Q" unicode="Q" horiz-adv-x="741"
d="M701 -4l-34 -42l-111 84q-74 -53 -185 -53q-82 0 -147.5 30.5t-106 82.5t-62 118t-21.5 141t21.5 141t62 118t106 82.5t147.5 30.5q108 0 185.5 -53t114 -135.5t36.5 -183.5q0 -179 -108 -283zM444 192l104 -79q91 85 91 244q0 61 -16 115.5t-47 99.5t-84 72t-121 27
t-121 -27t-84.5 -72t-47.5 -99.5t-16 -115.5t16 -115.5t47.5 -99.5t84.5 -72t121 -27q76 0 132 35l-94 71z" />
    <glyph glyph-name="R" unicode="R" horiz-adv-x="667"
d="M140 656v-281h254q65 0 109.5 38t44.5 101q0 67 -39 104.5t-115 37.5h-254zM72 0v714h327q94 0 155.5 -47t61.5 -139q0 -70 -36 -119t-103 -63v-2q66 -9 93.5 -49.5t31.5 -111.5q0 -3 1.5 -33t3 -44t4.5 -39t9 -41t15 -26h-75q-6 9 -9.5 25t-5 28.5t-2.5 32t-2 25.5
q-2 38 -4.5 61.5t-11 55t-23 49t-41 29.5t-63.5 11h-258v-317h-68z" />
    <glyph glyph-name="S" unicode="S" horiz-adv-x="630"
d="M36 235h68q-4 -192 233 -192q41 0 82.5 13.5t74 48.5t32.5 83q0 94 -147 129l-159 39q-74 19 -117.5 57t-43.5 115q0 30 11 61.5t36 64.5t76.5 54t122.5 21q113 0 188.5 -58t75.5 -164h-68q-4 78 -59.5 121t-135.5 43q-78 0 -128.5 -34t-50.5 -108q0 -85 108 -109
l174 -43q87 -23 136 -65.5t49 -122.5q0 -20 -3.5 -40.5t-20 -52t-43.5 -54.5t-80.5 -40t-125.5 -17q-134 0 -212.5 62.5t-72.5 187.5z" />
    <glyph glyph-name="T" unicode="T"
d="M-5 656v58h566v-58h-249v-656h-68v656h-249z" />
    <glyph glyph-name="U" unicode="U" horiz-adv-x="685"
d="M65 257v457h68v-442q0 -120 53 -174.5t156 -54.5t156.5 54.5t53.5 174.5v442h68v-457q0 -120 -68.5 -196t-209.5 -76q-140 0 -208.5 76.5t-68.5 195.5z" />
    <glyph glyph-name="V" unicode="V" horiz-adv-x="593"
d="M258 0l-265 714h73l232 -639h2l230 639h72l-265 -714h-79z" />
    <glyph glyph-name="W" unicode="W" horiz-adv-x="907"
d="M198 0l-198 714h73l162 -625h2l174 625h85l175 -625h2l163 625h68l-197 -714h-72l-181 639h-2l-180 -639h-74z" />
    <glyph glyph-name="X" unicode="X" horiz-adv-x="574"
d="M245 368l-242 346h80l202 -299l209 299h76l-244 -348l258 -366h-82l-217 315l-220 -315h-77z" />
    <glyph glyph-name="Y" unicode="Y" horiz-adv-x="611"
d="M271 0v294l-281 420h81l235 -362l234 362h81l-282 -420v-294h-68z" />
    <glyph glyph-name="Z" unicode="Z" horiz-adv-x="574"
d="M37 656v58h514v-60l-470 -596h480v-58h-556v60l470 596h-438z" />
    <glyph glyph-name="bracketleft" unicode="[" horiz-adv-x="241"
d="M237 -191h-161v920h161v-53h-98v-814h98v-53z" />
    <glyph glyph-name="backslash" unicode="\" horiz-adv-x="333"
d="M346 -15h-54l-305 744h51z" />
    <glyph glyph-name="bracketright" unicode="]" horiz-adv-x="241"
d="M4 729h161v-920h-161v53h98v814h-98v53z" />
    <glyph glyph-name="asciicircum" unicode="^" horiz-adv-x="600"
d="M102 238h-58l230 453h52l230 -453h-57l-200 390z" />
    <glyph glyph-name="underscore" unicode="_" horiz-adv-x="500"
d="M500 -125h-500v50h500v-50z" />
    <glyph glyph-name="grave" unicode="`" horiz-adv-x="185"
d="M101 588l-132 141h78l105 -141h-51z" />
    <glyph glyph-name="a" unicode="a" horiz-adv-x="519"
d="M117 358h-63q5 88 60.5 130.5t148.5 42.5q190 0 190 -166v-274q0 -38 37 -38q11 0 20 4v-53q-20 -4 -41 -4q-44 0 -59 22.5t-15 67.5h-2q-37 -55 -77.5 -80t-110.5 -25q-76 0 -124.5 38t-48.5 113q0 28 8 50.5t18.5 38t33 28t38.5 19t48.5 12.5t49.5 8.5t55 6.5l26 3
q44 4 62.5 17.5t18.5 52.5q0 59 -36 82.5t-99 23.5q-62 0 -99 -29.5t-39 -90.5zM390 200v82h-2q-8 -15 -53 -23q-17 -3 -54 -8.5t-57 -9t-48.5 -12t-43 -18.5t-26 -28.5t-11.5 -42.5q0 -46 34 -74t81 -28q76 0 128 44.5t52 117.5z" />
    <glyph glyph-name="b" unicode="b" horiz-adv-x="574"
d="M60 0v714h63v-296h2q19 53 69 83t110 30q112 0 172 -78t60 -195t-60 -195t-172 -78q-63 0 -112.5 30t-71.5 83h-2v-98h-58zM473 258q0 57 -16.5 105t-56 81.5t-96.5 33.5q-92 0 -136.5 -64.5t-44.5 -155.5t44.5 -155.5t136.5 -64.5q57 0 96.5 33.5t56 81.5t16.5 105z" />
    <glyph glyph-name="c" unicode="c" horiz-adv-x="519"
d="M487 354h-63q-27 124 -146 124q-85 0 -133 -65.5t-48 -154.5t48 -154.5t133 -65.5q58 0 101 42t49 105h63q-13 -94 -69.5 -147t-143.5 -53q-114 0 -179 78.5t-65 194.5t65 194.5t179 78.5q86 0 142 -45t67 -132z" />
    <glyph glyph-name="d" unicode="d" horiz-adv-x="574"
d="M514 714v-714h-58v98h-2q-20 -50 -73 -81.5t-111 -31.5q-112 0 -172 78t-60 195t60 195t172 78q60 0 110 -30t69 -83h2v296h63zM101 258q0 -57 16.5 -105t56 -81.5t96.5 -33.5q92 0 136.5 64.5t44.5 155.5t-44.5 155.5t-136.5 64.5q-57 0 -96.5 -33.5t-56 -81.5
t-16.5 -105z" />
    <glyph glyph-name="e" unicode="e" horiz-adv-x="519"
d="M97 294h334q-2 75 -47 129.5t-117 54.5q-73 0 -117 -53.5t-53 -130.5zM494 241h-397q0 -79 43.5 -141t126.5 -62q129 0 162 132h63q-43 -185 -225 -185q-116 0 -174.5 77t-58.5 196q0 72 23 131.5t77.5 100.5t132.5 41q79 0 132.5 -43t75.5 -107t19 -140z" />
    <glyph glyph-name="f" unicode="f" horiz-adv-x="259"
d="M259 516v-53h-102v-463h-63v463h-88v53h88v47q0 74 27 112.5t98 38.5q26 0 53 -4v-54q-28 5 -46 5q-20 0 -33.5 -5.5t-20.5 -13t-10.5 -23t-4 -26t-0.5 -32.5v-45h102z" />
    <glyph glyph-name="g" unicode="g"
d="M496 516v-474q0 -121 -54 -184.5t-175 -63.5q-85 0 -146.5 39.5t-67.5 116.5h63q9 -53 51 -78t100 -25q86 0 126 49t40 146v70h-2q-22 -49 -65.5 -77.5t-98.5 -28.5q-118 0 -175.5 73t-57.5 192q0 111 62.5 185.5t170.5 74.5q55 0 99.5 -29.5t64.5 -74.5h2v89h63zM267 59
q78 0 122 60.5t44 144.5q0 86 -41.5 150t-124.5 64q-84 0 -127 -62.5t-43 -151.5q0 -85 43.5 -145t126.5 -60z" />
    <glyph glyph-name="h" unicode="h" horiz-adv-x="537"
d="M59 0v714h63v-287h2q18 46 64 75t101 29q104 0 146.5 -50.5t42.5 -148.5v-332h-63v322q0 156 -131 156q-74 0 -117 -49.5t-45 -127.5v-301h-63z" />
    <glyph glyph-name="i" unicode="i" horiz-adv-x="185"
d="M61 613v101h63v-101h-63zM61 0v516h63v-516h-63z" />
    <glyph glyph-name="j" unicode="j" horiz-adv-x="185"
d="M61 613v101h63v-101h-63zM61 -63v579h63v-564q0 -143 -110 -143q-8 0 -22 1t-22 1v52q22 -2 34 -1q34 0 45.5 19t11.5 56z" />
    <glyph glyph-name="k" unicode="k" horiz-adv-x="500"
d="M60 0v714h63v-448l286 250h84l-220 -191l235 -325h-79l-204 281l-102 -85v-196h-63z" />
    <glyph glyph-name="l" unicode="l" horiz-adv-x="185"
d="M61 0v714h63v-714h-63z" />
    <glyph glyph-name="m" unicode="m" horiz-adv-x="833"
d="M60 0v516h58v-87h3q53 102 169 102q53 0 93.5 -26t54.5 -75q22 49 66.5 75t97.5 26q171 0 171 -181v-350h-63v347q0 66 -28 98.5t-94 32.5q-140 0 -140 -186v-292h-63v350q0 128 -108 128q-77 0 -115.5 -52t-38.5 -138v-288h-63z" />
    <glyph glyph-name="n" unicode="n" horiz-adv-x="537"
d="M59 0v516h63v-89h2q18 46 64 75t101 29q104 0 146.5 -50.5t42.5 -148.5v-332h-63v322q0 156 -131 156q-74 0 -117 -49.5t-45 -127.5v-301h-63z" />
    <glyph glyph-name="o" unicode="o"
d="M278 478q-85 0 -133 -65.5t-48 -154.5t48 -154.5t133 -65.5t133 65.5t48 154.5t-48 154.5t-133 65.5zM278 531q114 0 179 -78.5t65 -194.5t-65 -194.5t-179 -78.5t-179 78.5t-65 194.5t65 194.5t179 78.5z" />
    <glyph glyph-name="p" unicode="p" horiz-adv-x="574"
d="M60 -191v707h58v-98h2q22 53 71.5 83t112.5 30q112 0 172 -78t60 -195t-60 -195t-172 -78q-60 0 -110 29.5t-69 83.5h-2v-289h-63zM473 258q0 57 -16.5 105t-56 81.5t-96.5 33.5q-181 0 -181 -220q0 -91 44.5 -155.5t136.5 -64.5q57 0 96.5 33.5t56 81.5t16.5 105z" />
    <glyph glyph-name="q" unicode="q" horiz-adv-x="574"
d="M514 516v-707h-63v289h-2q-19 -54 -69 -83.5t-110 -29.5q-112 0 -172 78t-60 195t60 195t172 78q58 0 111 -31.5t73 -81.5h2v98h58zM101 258q0 -57 16.5 -105t56 -81.5t96.5 -33.5q92 0 136.5 64.5t44.5 155.5t-44.5 155.5t-136.5 64.5q-57 0 -96.5 -33.5t-56 -81.5
t-16.5 -105z" />
    <glyph glyph-name="r" unicode="r" horiz-adv-x="315"
d="M60 0v516h58v-121h2q24 64 75 97.5t120 30.5v-63q-84 4 -138 -49.5t-54 -135.5v-275h-63z" />
    <glyph glyph-name="s" unicode="s" horiz-adv-x="481"
d="M432 365h-63q-2 56 -40 84.5t-95 28.5q-49 0 -85.5 -21.5t-36.5 -67.5q0 -60 107 -87l84 -19q62 -9 104.5 -45t42.5 -98q0 -77 -62.5 -116t-144.5 -39q-196 0 -212 182h63q4 -62 45.5 -95.5t106.5 -33.5q54 0 97.5 24.5t43.5 73.5q0 41 -30 61t-83 33l-81 18
q-71 18 -107.5 48t-36.5 90q0 73 58 109t136 36q81 0 133 -42.5t56 -123.5z" />
    <glyph glyph-name="t" unicode="t" horiz-adv-x="296"
d="M160 671v-155h105v-53h-105v-348q0 -34 10 -50t41 -18q27 0 54 3v-54q-9 0 -28 -1t-28 -1q-63 0 -88 25t-24 91v353h-90v53h90v155h63z" />
    <glyph glyph-name="u" unicode="u" horiz-adv-x="537"
d="M478 516v-516h-58v93h-2q-24 -51 -72 -79.5t-106 -28.5q-181 0 -181 196v335h63v-336q2 -72 33.5 -107t104.5 -35q76 0 115.5 60.5t39.5 146.5v271h63z" />
    <glyph glyph-name="v" unicode="v" horiz-adv-x="463"
d="M201 0l-199 516h70l162 -453h2l160 453h65l-193 -516h-67z" />
    <glyph glyph-name="w" unicode="w" horiz-adv-x="741"
d="M174 0l-166 516h67l132 -442h2l126 442h71l126 -442h2l132 442h67l-166 -516h-69l-127 434h-2l-126 -434h-69z" />
    <glyph glyph-name="x" unicode="x" horiz-adv-x="481"
d="M1 0l200 268l-185 248h79l147 -196l144 196h79l-186 -247l201 -269h-80l-162 217l-159 -217h-78z" />
    <glyph glyph-name="y" unicode="y" horiz-adv-x="463"
d="M208 2l-206 514h67l170 -440l159 440h63l-224 -595q-29 -68 -54 -90t-82 -22q-38 2 -48 5v53q25 -5 43 -5q20 0 34 5t24.5 18.5t15.5 23.5t16 34z" />
    <glyph glyph-name="z" unicode="z" horiz-adv-x="463"
d="M432 471l-341 -418h355v-53h-431v51l337 412h-314v53h394v-45z" />
    <glyph glyph-name="braceleft" unicode="{" horiz-adv-x="333"
d="M293 -191h-50q-42 0 -65 33.5t-23 91.5v148q0 160 -72 160v53q72 0 72 160v149q0 58 23 91.5t65 33.5h50v-53h-20q-28 0 -41.5 -29.5t-13.5 -73.5v-141q0 -38 -8.5 -69.5t-22 -50.5t-22.5 -28t-17 -14v-2q8 -5 17 -14t22.5 -28t22 -50.5t8.5 -69.5v-141q0 -45 13.5 -74
t41.5 -29h20v-53z" />
    <glyph glyph-name="bar" unicode="|" horiz-adv-x="222"
d="M85 -214v1000h53v-1000h-53z" />
    <glyph glyph-name="braceright" unicode="}" horiz-adv-x="333"
d="M40 729h50q42 0 65 -33.5t23 -91.5v-148q0 -160 72 -160v-53q-72 0 -72 -160v-149q0 -58 -23 -91.5t-65 -33.5h-50v53h20q28 0 41.5 29t13.5 74v141q0 38 8.5 69.5t22 50.5t22.5 28t17 14v2q-8 5 -17 14t-22.5 28t-22 50.5t-8.5 69.5v141q0 44 -13.5 73.5t-41.5 29.5h-20
v53z" />
    <glyph glyph-name="asciitilde" unicode="~" horiz-adv-x="600"
d="M495 315l36 -36q-27 -41 -55 -63.5t-70 -22.5t-110 33q-70 32 -107 32q-52 0 -84 -69l-36 36q42 86 125 86q41 0 115 -32q76 -33 98 -33q27 0 46.5 18t41.5 51z" />
    <glyph glyph-name="uni00A0" unicode="&#xa0;" horiz-adv-x="278"
 />
    <glyph glyph-name="exclamdown" unicode="&#xa1;" horiz-adv-x="241"
d="M79 516h84v-106h-84v106zM140 338l15 -323v-206h-68v206l15 323h38z" />
    <glyph glyph-name="cent" unicode="&#xa2;"
d="M507 354h-63q-26 120 -135 124v-440q54 2 93.5 44t45.5 103h63q-12 -90 -66 -143.5t-136 -56.5v-101h-39v102q-101 9 -158.5 86.5t-57.5 185.5q0 109 57.5 185.5t158.5 85.5v89h39v-87q81 -2 135 -48t63 -129zM270 39v437q-73 -11 -113 -74t-40 -144t40 -144.5t113 -74.5
z" />
    <glyph glyph-name="sterling" unicode="&#xa3;"
d="M46 330v32h63q-55 87 -55 161q0 101 66.5 153.5t161.5 52.5q111 0 172.5 -63t59.5 -174h-63q0 84 -43.5 134t-125.5 50q-68 0 -116.5 -40.5t-48.5 -116.5q0 -31 8.5 -55.5t25.5 -53.5t25 -48h160v-32h-142q24 -38 24 -97q0 -98 -110 -182l2 -2q58 30 97 30q53 0 102 -20
q53 -21 86 -21q64 0 115 56l32 -48q-69 -61 -146 -61q-44 0 -105.5 20.5t-101.5 20.5q-12 0 -23.5 -1.5t-18.5 -3.5t-17.5 -7t-15 -7.5t-17.5 -10.5l-18 -11l-36 54q52 44 82 87.5t30 98.5q0 58 -28 105h-81z" />
    <glyph glyph-name="currency" unicode="&#xa4;"
d="M94 346q0 -80 54 -135t131 -55t131 55t54 135t-54 135t-131 55t-131 -55t-54 -135zM29 136l57 57q-55 68 -55 153q0 88 54 154l-56 56l38 38l56 -56q66 56 156 56q85 0 153 -55l55 55l38 -38l-54 -54q56 -69 56 -156t-56 -156l54 -54l-38 -38l-55 55q-64 -55 -153 -55
q-87 0 -156 56l-56 -56z" />
    <glyph glyph-name="yen" unicode="&#xa5;"
d="M110 304v45h106l-210 365h72l199 -365l201 365h69l-211 -365h109v-45h-131l-6 -10v-73h137v-45h-137v-176h-63v176h-135v45h135v73l-6 10h-129z" />
    <glyph glyph-name="brokenbar" unicode="&#xa6;" horiz-adv-x="222"
d="M85 411v250h53v-250h-53zM85 -89v250h53v-250h-53z" />
    <glyph glyph-name="section" unicode="&#xa7;"
d="M511 231q0 -48 -30.5 -84.5t-78.5 -55.5q50 -44 50 -109q0 -66 -50.5 -104.5t-118.5 -38.5q-86 0 -135.5 46t-49.5 131h63q-2 -52 31 -88t85 -36q47 0 79.5 22.5t32.5 66.5q0 41 -35.5 75t-86 59.5l-101 53.5t-86 71t-35.5 97q0 48 30.5 84.5t78.5 55.5q-50 44 -50 109
q0 66 50.5 104.5t118.5 38.5q86 0 135.5 -46t49.5 -131h-63q2 52 -31 88t-85 36q-47 0 -79.5 -22.5t-32.5 -66.5q0 -41 35.5 -75t86 -59.5l101 -53.5t86 -71t35.5 -97zM448 230q0 37 -30 71t-65.5 54.5l-88 48.5t-74.5 43q-82 -34 -82 -108q0 -35 29.5 -69t65 -55
l87.5 -49.5t74 -43.5q84 35 84 108z" />
    <glyph glyph-name="dieresis" unicode="&#xa8;" horiz-adv-x="185"
d="M38 610h-68v101h68v-101zM215 610h-68v101h68v-101z" />
    <glyph glyph-name="copyright" unicode="&#xa9;" horiz-adv-x="800"
d="M594 435h-51q-9 46 -44.5 75.5t-88.5 30.5q-78 0 -121.5 -51.5t-43.5 -132.5t43.5 -132.5t121.5 -51.5q53 0 88.5 29.5t44.5 76.5h51q-9 -71 -60.5 -111t-124.5 -40q-100 0 -158.5 64t-58.5 165t58.5 165t158.5 64q73 0 124.5 -40t60.5 -111zM714 357q0 134 -90 226.5
t-224 92.5q-135 0 -224.5 -92t-89.5 -227t89.5 -227t224.5 -92q134 0 224 92.5t90 226.5zM772 357q0 -157 -107 -264.5t-265 -107.5t-265 107.5t-107 264.5t107 264.5t265 107.5t265 -107.5t107 -264.5z" />
    <glyph glyph-name="ordfeminine" unicode="&#xaa;" horiz-adv-x="311"
d="M54 597h-47q6 109 140 109q128 0 128 -100v-172q2 -23 25 -23q7 0 13 3v-34q-21 -3 -27 -3q-29 0 -38.5 13t-9.5 43h-2q-41 -65 -123 -65q-54 0 -86 23.5t-32 72.5q0 26 10.5 44.5t23.5 28.5t40 17t43.5 9t51.5 5q7 1 11 1q29 3 41 9t12 22q0 67 -88 67q-37 0 -61 -18
t-25 -52zM228 502v47h-2q-1 -3 -5.5 -5.5t-8.5 -3.5t-11 -2.5t-9 -2.5l-33.5 -5t-32 -5t-27 -5.5t-24 -7.5t-17.5 -10t-12.5 -15t-3.5 -21q0 -25 22 -42t47 -17q48 0 82.5 26t34.5 69z" />
    <glyph glyph-name="guillemotleft" unicode="&#xab;" horiz-adv-x="426"
d="M193 119l-133 125v62l133 125v-67l-94 -89l94 -89v-67zM354 119l-133 125v62l133 125v-67l-94 -89l94 -89v-67z" />
    <glyph glyph-name="logicalnot" unicode="&#xac;" horiz-adv-x="600"
d="M499 111v214h-450v53h503v-267h-53z" />
    <glyph glyph-name="uni00AD" unicode="&#xad;" horiz-adv-x="370"
d="M310 246h-250v58h250v-58z" />
    <glyph glyph-name="registered" unicode="&#xae;" horiz-adv-x="800"
d="M318 378h70q25 0 39 0.5t33.5 4.5t30 12t18.5 22.5t8 35.5q0 74 -102 74h-97v-149zM318 333v-191h-53v430h165q140 0 140 -119q0 -100 -108 -120l128 -191h-62l-121 191h-89zM400 676q-135 0 -224.5 -92t-89.5 -227t89.5 -227t224.5 -92q134 0 224 92.5t90 226.5
t-90 226.5t-224 92.5zM400 729q158 0 265 -107.5t107 -264.5t-107 -264.5t-265 -107.5t-265 107.5t-107 264.5t107 264.5t265 107.5z" />
    <glyph glyph-name="macron" unicode="&#xaf;" horiz-adv-x="185"
d="M257 638h-329v45h329v-45z" />
    <glyph glyph-name="degree" unicode="&#xb0;" horiz-adv-x="400"
d="M95 562q0 -44 30.5 -74.5t74.5 -30.5t74.5 30.5t30.5 74.5t-30.5 74.5t-74.5 30.5t-74.5 -30.5t-30.5 -74.5zM56 562q0 60 42 102t102 42q59 0 101.5 -42.5t42.5 -101.5q0 -60 -42 -102t-102 -42q-61 0 -102.5 41.5t-41.5 102.5z" />
    <glyph glyph-name="plusminus" unicode="&#xb1;" horiz-adv-x="600"
d="M49 0v53h503v-53h-503zM274 323v180h53v-180h225v-53h-225v-180h-53v180h-224v53h224z" />
    <glyph glyph-name="twosuperior" unicode="&#xb2;" horiz-adv-x="333"
d="M71 553h-47q-2 71 36 112t114 41q66 0 106 -32t40 -93q0 -48 -30.5 -82.5t-84.5 -66.5q-8 -5 -36 -21t-43.5 -26.5t-33 -30.5t-23.5 -41h248v-39h-302q1 45 25.5 81t55 55.5l73.5 46.5t65 48q39 37 39 80q0 38 -30 60t-73 22q-51 0 -75 -32.5t-24 -81.5z" />
    <glyph glyph-name="threesuperior" unicode="&#xb3;" horiz-adv-x="333"
d="M135 478v39h35q36 0 64.5 19t28.5 55q0 37 -28 56.5t-70 19.5q-48 0 -74.5 -28.5t-25.5 -74.5h-47q1 64 39.5 103t107.5 39q61 0 103 -28.5t42 -82.5q0 -35 -20 -60t-57 -33v-2q45 -6 69.5 -33.5t24.5 -69.5q0 -62 -46 -97t-115 -35q-76 0 -119.5 38.5t-38.5 108.5h47
q-2 -48 27.5 -78t82.5 -30q46 0 80.5 24.5t34.5 65.5q0 40 -31 62t-79 22h-35z" />
    <glyph glyph-name="acute" unicode="&#xb4;" horiz-adv-x="185"
d="M216 731l-132 -141h-51l105 141h78z" />
    <glyph glyph-name="mu" unicode="&#xb5;" horiz-adv-x="537"
d="M478 516v-516h-58v93h-2q-24 -51 -72 -79.5t-106 -28.5q-70 0 -117 35v-211h-64v707h63v-336q2 -72 33.5 -107t104.5 -35q76 0 115.5 60.5t39.5 146.5v271h63z" />
    <glyph glyph-name="paragraph" unicode="&#xb6;" horiz-adv-x="600"
d="M273 -177v505q-87 0 -147 55.5t-60 134.5q0 95 58.5 145.5t164.5 50.5h230v-891h-63v838h-120v-838h-63z" />
    <glyph glyph-name="periodcentered" unicode="&#xb7;" horiz-adv-x="278"
d="M139 375q24 0 41.5 -18t17.5 -42q0 -23 -18 -40.5t-41 -17.5q-24 0 -41.5 18t-17.5 42q0 23 18 40.5t41 17.5z" />
    <glyph glyph-name="cedilla" unicode="&#xb8;" horiz-adv-x="185"
d="M91 0h35l-44 -54q22 5 50 3q66 -11 66 -66q0 -42 -33.5 -64t-76.5 -22q-53 0 -94 21l14 32q34 -14 79 -14q53 0 53 43q0 17 -12.5 27.5t-30.5 10.5q-33 0 -51 -8l-16 15z" />
    <glyph glyph-name="onesuperior" unicode="&#xb9;" horiz-adv-x="333"
d="M35 584v39q34 1 49.5 3t35 9t29 22t14.5 40h40v-423h-47v310h-121z" />
    <glyph glyph-name="ordmasculine" unicode="&#xba;" horiz-adv-x="334"
d="M167 407q55 0 86 39t31 91t-31 91t-86 39t-86 -39t-31 -91t31 -91t86 -39zM162 368q-75 0 -117 48t-42 121t42 121t117 48q81 0 125 -47.5t44 -121.5t-44 -121.5t-125 -47.5z" />
    <glyph glyph-name="guillemotright" unicode="&#xbb;" horiz-adv-x="426"
d="M72 119v67l94 89l-94 89v67l133 -125v-62zM233 119v67l94 89l-94 89v67l133 -125v-62z" />
    <glyph glyph-name="onequarter" unicode="&#xbc;" horiz-adv-x="834"
d="M640 355l-162 -216h164v216h-2zM642 0v100h-210v39l213 284h44v-284h68v-39h-68v-100h-47zM48 584v39q34 1 49.5 3t35 9t29 22t14.5 40h40v-423h-47v310h-121zM133 -34l453 759h47l-452 -759h-48z" />
    <glyph glyph-name="onehalf" unicode="&#xbd;" horiz-adv-x="834"
d="M536 279h-47q-2 71 36 112t114 41q66 0 106 -32t40 -93q0 -48 -30.5 -82.5t-84.5 -66.5q-8 -5 -36 -21t-43.5 -26.5t-33 -30.5t-23.5 -41h248v-39h-302q1 45 25.5 81t55 55.5l73.5 46.5t65 48q39 37 39 80q0 38 -30 60t-73 22q-51 0 -75 -32.5t-24 -81.5zM48 584v39
q34 1 49.5 3t35 9t29 22t14.5 40h40v-423h-47v310h-121zM133 -34l453 759h47l-452 -759h-48z" />
    <glyph glyph-name="threequarters" unicode="&#xbe;" horiz-adv-x="834"
d="M640 355l-162 -216h164v216h-2zM642 0v100h-210v39l213 284h44v-284h68v-39h-68v-100h-47zM173 -34l453 759h47l-452 -759h-48zM135 478v39h35q36 0 64.5 19t28.5 55q0 37 -28 56.5t-70 19.5q-48 0 -74.5 -28.5t-25.5 -74.5h-47q1 64 39.5 103t107.5 39q61 0 103 -28.5
t42 -82.5q0 -35 -20 -60t-57 -33v-2q45 -6 69.5 -33.5t24.5 -69.5q0 -62 -46 -97t-115 -35q-76 0 -119.5 38.5t-38.5 108.5h47q-2 -48 27.5 -78t82.5 -30q46 0 80.5 24.5t34.5 65.5q0 40 -31 62t-79 22h-35z" />
    <glyph glyph-name="questiondown" unicode="&#xbf;" horiz-adv-x="537"
d="M307 516v-106h-84v106h84zM421 29h63q0 -108 -60 -171.5t-167 -63.5q-86 0 -144.5 50.5t-58.5 134.5q0 52 22 90.5t65 79.5l31 30.5l24.5 24t15 18.5t12 21t5 23.5t4.5 33t1 44.5h63q1 -46 -3.5 -76.5t-22.5 -58.5t-34 -45t-55 -53q-65 -61 -65 -129q0 -59 42 -97
t101 -38q79 0 121 51t40 131z" />
    <glyph glyph-name="Agrave" unicode="&#xc0;" horiz-adv-x="630"
d="M316 646l-143 -366h281zM-7 0l288 714h76l280 -714h-73l-87 222h-325l-86 -222h-73zM307 778l-132 141h78l105 -141h-51z" />
    <glyph glyph-name="Aacute" unicode="&#xc1;" horiz-adv-x="630"
d="M316 646l-143 -366h281zM-7 0l288 714h76l280 -714h-73l-87 222h-325l-86 -222h-73zM464 921l-132 -141h-51l105 141h78z" />
    <glyph glyph-name="Acircumflex" unicode="&#xc2;" horiz-adv-x="630"
d="M316 646l-143 -366h281zM-7 0l288 714h76l280 -714h-73l-87 222h-325l-86 -222h-73zM351 920l114 -141h-65l-86 102l-88 -102h-58l114 141h69z" />
    <glyph glyph-name="Atilde" unicode="&#xc3;" horiz-adv-x="630"
d="M316 646l-143 -366h281zM-7 0l288 714h76l280 -714h-73l-87 222h-325l-86 -222h-73zM436 900h38q-7 -39 -28.5 -67t-58.5 -28q-29 0 -75 23t-63 23q-38 0 -50 -51h-39q4 38 28 67t61 29q31 0 75 -22t60 -22q38 0 52 48z" />
    <glyph glyph-name="Adieresis" unicode="&#xc4;" horiz-adv-x="630"
d="M316 646l-143 -366h281zM-7 0l288 714h76l280 -714h-73l-87 222h-325l-86 -222h-73zM262 800h-68v101h68v-101zM439 800h-68v101h68v-101z" />
    <glyph glyph-name="Aring" unicode="&#xc5;" horiz-adv-x="630"
d="M316 646l-143 -366h281zM-7 0l288 714h76l280 -714h-73l-87 222h-325l-86 -222h-73zM250 860q0 -29 19.5 -48.5t48.5 -19.5t48.5 19.5t19.5 48.5t-19.5 48.5t-48.5 19.5t-48.5 -19.5t-19.5 -48.5zM211 860q0 44 31.5 75.5t75.5 31.5t75.5 -31.5t31.5 -75.5t-31.5 -75.5
t-75.5 -31.5t-75.5 31.5t-31.5 75.5z" />
    <glyph glyph-name="AE" unicode="&#xc6;" horiz-adv-x="907"
d="M216 284h229v372h-40zM513 340v-282h371v-58h-439v226h-259l-116 -226h-77l374 714h513v-58h-367v-258h344v-58h-344z" />
    <glyph glyph-name="Ccedilla" unicode="&#xc7;" horiz-adv-x="704"
d="M662 498h-68q-18 81 -78.5 127t-140.5 46q-68 0 -121 -27t-84.5 -72t-47.5 -99.5t-16 -115.5t16 -115.5t47.5 -99.5t84.5 -72t121 -27q96 0 157.5 65t71.5 164h68q-14 -133 -93 -210t-204 -77h-1l-32 -39q22 5 50 3q66 -11 66 -66q0 -42 -33.5 -64t-76.5 -22
q-53 0 -94 21l14 32q34 -14 79 -14q53 0 53 43q0 17 -12.5 27.5t-30.5 10.5q-33 0 -51 -8l-16 15l50 63q-61 4 -113 28q-92 45 -140.5 136.5t-48.5 205.5q0 75 21.5 141t62 118t106 82.5t147.5 30.5q108 0 190.5 -62t96.5 -169z" />
    <glyph glyph-name="Egrave" unicode="&#xc8;" horiz-adv-x="593"
d="M72 0v714h493v-58h-425v-258h398v-58h-398v-282h430v-58h-498zM316 778l-132 141h78l105 -141h-51z" />
    <glyph glyph-name="Eacute" unicode="&#xc9;" horiz-adv-x="593"
d="M72 0v714h493v-58h-425v-258h398v-58h-398v-282h430v-58h-498zM463 921l-132 -141h-51l105 141h78z" />
    <glyph glyph-name="Ecircumflex" unicode="&#xca;" horiz-adv-x="593"
d="M72 0v714h493v-58h-425v-258h398v-58h-398v-282h430v-58h-498zM355 920l114 -141h-65l-86 102l-88 -102h-58l114 141h69z" />
    <glyph glyph-name="Edieresis" unicode="&#xcb;" horiz-adv-x="593"
d="M72 0v714h493v-58h-425v-258h398v-58h-398v-282h430v-58h-498zM263 800h-68v101h68v-101zM440 800h-68v101h68v-101z" />
    <glyph glyph-name="Igrave" unicode="&#xcc;" horiz-adv-x="222"
d="M77 0v714h68v-714h-68zM94 778l-132 141h78l105 -141h-51z" />
    <glyph glyph-name="Iacute" unicode="&#xcd;" horiz-adv-x="222"
d="M77 0v714h68v-714h-68zM260 921l-132 -141h-51l105 141h78z" />
    <glyph glyph-name="Icircumflex" unicode="&#xce;" horiz-adv-x="222"
d="M77 0v714h68v-714h-68zM146 920l114 -141h-65l-86 102l-88 -102h-58l114 141h69z" />
    <glyph glyph-name="Idieresis" unicode="&#xcf;" horiz-adv-x="222"
d="M77 0v714h68v-714h-68zM57 800h-68v101h68v-101zM234 800h-68v101h68v-101z" />
    <glyph glyph-name="Eth" unicode="&#xd0;" horiz-adv-x="685"
d="M72 393v321h247q328 -8 328 -357t-328 -357h-247v348h-72v45h72zM140 656v-263h236v-45h-236v-290h145q155 0 224.5 70t69.5 229t-69.5 229t-224.5 70h-145z" />
    <glyph glyph-name="Ntilde" unicode="&#xd1;" horiz-adv-x="704"
d="M71 0v714h76l416 -604h2v604h68v-714h-76l-416 604h-2v-604h-68zM478 900h38q-7 -39 -28.5 -67t-58.5 -28q-29 0 -75 23t-63 23q-38 0 -50 -51h-39q4 38 28 67t61 29q31 0 75 -22t60 -22q38 0 52 48z" />
    <glyph glyph-name="Ograve" unicode="&#xd2;" horiz-adv-x="741"
d="M102 357q0 -61 16 -115.5t47.5 -99.5t84.5 -72t121 -27t121 27t84 72t47 99.5t16 115.5t-16 115.5t-47 99.5t-84 72t-121 27t-121 -27t-84.5 -72t-47.5 -99.5t-16 -115.5zM34 357q0 75 21.5 141t62 118t106 82.5t147.5 30.5q108 0 185.5 -53t114 -135.5t36.5 -183.5
t-36.5 -183.5t-114 -135.5t-185.5 -53q-82 0 -147.5 30.5t-106 82.5t-62 118t-21.5 141zM371 778l-132 141h78l105 -141h-51z" />
    <glyph glyph-name="Oacute" unicode="&#xd3;" horiz-adv-x="741"
d="M102 357q0 -61 16 -115.5t47.5 -99.5t84.5 -72t121 -27t121 27t84 72t47 99.5t16 115.5t-16 115.5t-47 99.5t-84 72t-121 27t-121 -27t-84.5 -72t-47.5 -99.5t-16 -115.5zM34 357q0 75 21.5 141t62 118t106 82.5t147.5 30.5q108 0 185.5 -53t114 -135.5t36.5 -183.5
t-36.5 -183.5t-114 -135.5t-185.5 -53q-82 0 -147.5 30.5t-106 82.5t-62 118t-21.5 141zM528 921l-132 -141h-51l105 141h78z" />
    <glyph glyph-name="Ocircumflex" unicode="&#xd4;" horiz-adv-x="741"
d="M102 357q0 -61 16 -115.5t47.5 -99.5t84.5 -72t121 -27t121 27t84 72t47 99.5t16 115.5t-16 115.5t-47 99.5t-84 72t-121 27t-121 -27t-84.5 -72t-47.5 -99.5t-16 -115.5zM34 357q0 75 21.5 141t62 118t106 82.5t147.5 30.5q108 0 185.5 -53t114 -135.5t36.5 -183.5
t-36.5 -183.5t-114 -135.5t-185.5 -53q-82 0 -147.5 30.5t-106 82.5t-62 118t-21.5 141zM407 920l114 -141h-65l-86 102l-88 -102h-58l114 141h69z" />
    <glyph glyph-name="Otilde" unicode="&#xd5;" horiz-adv-x="741"
d="M102 357q0 -61 16 -115.5t47.5 -99.5t84.5 -72t121 -27t121 27t84 72t47 99.5t16 115.5t-16 115.5t-47 99.5t-84 72t-121 27t-121 -27t-84.5 -72t-47.5 -99.5t-16 -115.5zM34 357q0 75 21.5 141t62 118t106 82.5t147.5 30.5q108 0 185.5 -53t114 -135.5t36.5 -183.5
t-36.5 -183.5t-114 -135.5t-185.5 -53q-82 0 -147.5 30.5t-106 82.5t-62 118t-21.5 141zM491 900h38q-7 -39 -28.5 -67t-58.5 -28q-30 0 -75 23t-63 23q-38 0 -50 -51h-39q4 38 28 67t61 29q31 0 75 -22t60 -22q38 0 52 48z" />
    <glyph glyph-name="Odieresis" unicode="&#xd6;" horiz-adv-x="741"
d="M102 357q0 -61 16 -115.5t47.5 -99.5t84.5 -72t121 -27t121 27t84 72t47 99.5t16 115.5t-16 115.5t-47 99.5t-84 72t-121 27t-121 -27t-84.5 -72t-47.5 -99.5t-16 -115.5zM34 357q0 75 21.5 141t62 118t106 82.5t147.5 30.5q108 0 185.5 -53t114 -135.5t36.5 -183.5
t-36.5 -183.5t-114 -135.5t-185.5 -53q-82 0 -147.5 30.5t-106 82.5t-62 118t-21.5 141zM314 800h-68v101h68v-101zM491 800h-68v101h68v-101z" />
    <glyph glyph-name="multiply" unicode="&#xd7;" horiz-adv-x="600"
d="M262 251l-188 189l37 37l189 -189l189 189l37 -37l-189 -189l189 -189l-37 -37l-189 188l-189 -188l-37 37z" />
    <glyph glyph-name="Oslash" unicode="&#xd8;" horiz-adv-x="741"
d="M672 719l26 -23l-73 -81q82 -100 82 -258q0 -101 -36.5 -183.5t-114 -135.5t-185.5 -53q-142 0 -231 89l-76 -86l-27 25l79 88q-82 101 -82 256q0 75 21.5 141t62 118t106 82.5t147.5 30.5q140 0 230 -88zM160 150l398 443q-71 78 -187 78q-68 0 -121 -27t-84.5 -72
t-47.5 -99.5t-16 -115.5q0 -124 58 -207zM580 565l-397 -443q71 -79 188 -79q68 0 121 27t84 72t47 99.5t16 115.5q0 126 -59 208z" />
    <glyph glyph-name="Ugrave" unicode="&#xd9;" horiz-adv-x="685"
d="M65 257v457h68v-442q0 -120 53 -174.5t156 -54.5t156.5 54.5t53.5 174.5v442h68v-457q0 -120 -68.5 -196t-209.5 -76q-140 0 -208.5 76.5t-68.5 195.5zM346 778l-132 141h78l105 -141h-51z" />
    <glyph glyph-name="Uacute" unicode="&#xda;" horiz-adv-x="685"
d="M65 257v457h68v-442q0 -120 53 -174.5t156 -54.5t156.5 54.5t53.5 174.5v442h68v-457q0 -120 -68.5 -196t-209.5 -76q-140 0 -208.5 76.5t-68.5 195.5zM497 921l-132 -141h-51l105 141h78z" />
    <glyph glyph-name="Ucircumflex" unicode="&#xdb;" horiz-adv-x="685"
d="M65 257v457h68v-442q0 -120 53 -174.5t156 -54.5t156.5 54.5t53.5 174.5v442h68v-457q0 -120 -68.5 -196t-209.5 -76q-140 0 -208.5 76.5t-68.5 195.5zM377 920l114 -141h-65l-86 102l-88 -102h-58l114 141h69z" />
    <glyph glyph-name="Udieresis" unicode="&#xdc;" horiz-adv-x="685"
d="M65 257v457h68v-442q0 -120 53 -174.5t156 -54.5t156.5 54.5t53.5 174.5v442h68v-457q0 -120 -68.5 -196t-209.5 -76q-140 0 -208.5 76.5t-68.5 195.5zM288 800h-68v101h68v-101zM465 800h-68v101h68v-101z" />
    <glyph glyph-name="Yacute" unicode="&#xdd;" horiz-adv-x="611"
d="M271 0v294l-281 420h81l235 -362l234 362h81l-282 -420v-294h-68zM461 921l-132 -141h-51l105 141h78z" />
    <glyph glyph-name="Thorn" unicode="&#xde;" horiz-adv-x="630"
d="M140 539v-292h234q74 0 116.5 37t42.5 109t-42.5 109t-116.5 37h-234zM72 0v714h68v-117h249q97 0 154.5 -54t57.5 -150t-57.5 -150t-154.5 -54h-249v-189h-68z" />
    <glyph glyph-name="germandbls" unicode="&#xdf;" horiz-adv-x="537"
d="M61 0v535q0 96 53.5 145t145.5 49q84 0 140 -47t56 -129q0 -55 -30 -96.5t-83 -53.5v-2q70 -6 109.5 -59.5t39.5 -125.5q0 -106 -61.5 -164t-160.5 -60h-25q-7 0 -25 2v55q21 -4 47 -4q68 0 115 39.5t47 120.5q0 51 -14.5 84t-44.5 50t-64.5 23t-85.5 6v53q173 0 173 130
q0 55 -38.5 90t-93.5 35q-73 0 -105 -36t-32 -110v-530h-63z" />
    <glyph glyph-name="agrave" unicode="&#xe0;" horiz-adv-x="519"
d="M117 358h-63q5 88 60.5 130.5t148.5 42.5q190 0 190 -166v-274q0 -38 37 -38q11 0 20 4v-53q-20 -4 -41 -4q-44 0 -59 22.5t-15 67.5h-2q-37 -55 -77.5 -80t-110.5 -25q-76 0 -124.5 38t-48.5 113q0 28 8 50.5t18.5 38t33 28t38.5 19t48.5 12.5t49.5 8.5t55 6.5l26 3
q44 4 62.5 17.5t18.5 52.5q0 59 -36 82.5t-99 23.5q-62 0 -99 -29.5t-39 -90.5zM390 200v82h-2q-8 -15 -53 -23q-17 -3 -54 -8.5t-57 -9t-48.5 -12t-43 -18.5t-26 -28.5t-11.5 -42.5q0 -46 34 -74t81 -28q76 0 128 44.5t52 117.5zM258 588l-132 141h78l105 -141h-51z" />
    <glyph glyph-name="aacute" unicode="&#xe1;" horiz-adv-x="519"
d="M117 358h-63q5 88 60.5 130.5t148.5 42.5q190 0 190 -166v-274q0 -38 37 -38q11 0 20 4v-53q-20 -4 -41 -4q-44 0 -59 22.5t-15 67.5h-2q-37 -55 -77.5 -80t-110.5 -25q-76 0 -124.5 38t-48.5 113q0 28 8 50.5t18.5 38t33 28t38.5 19t48.5 12.5t49.5 8.5t55 6.5l26 3
q44 4 62.5 17.5t18.5 52.5q0 59 -36 82.5t-99 23.5q-62 0 -99 -29.5t-39 -90.5zM390 200v82h-2q-8 -15 -53 -23q-17 -3 -54 -8.5t-57 -9t-48.5 -12t-43 -18.5t-26 -28.5t-11.5 -42.5q0 -46 34 -74t81 -28q76 0 128 44.5t52 117.5zM410 731l-132 -141h-51l105 141h78z" />
    <glyph glyph-name="acircumflex" unicode="&#xe2;" horiz-adv-x="519"
d="M117 358h-63q5 88 60.5 130.5t148.5 42.5q190 0 190 -166v-274q0 -38 37 -38q11 0 20 4v-53q-20 -4 -41 -4q-44 0 -59 22.5t-15 67.5h-2q-37 -55 -77.5 -80t-110.5 -25q-76 0 -124.5 38t-48.5 113q0 28 8 50.5t18.5 38t33 28t38.5 19t48.5 12.5t49.5 8.5t55 6.5l26 3
q44 4 62.5 17.5t18.5 52.5q0 59 -36 82.5t-99 23.5q-62 0 -99 -29.5t-39 -90.5zM390 200v82h-2q-8 -15 -53 -23q-17 -3 -54 -8.5t-57 -9t-48.5 -12t-43 -18.5t-26 -28.5t-11.5 -42.5q0 -46 34 -74t81 -28q76 0 128 44.5t52 117.5zM294 730l114 -141h-65l-86 102l-88 -102
h-58l114 141h69z" />
    <glyph glyph-name="atilde" unicode="&#xe3;" horiz-adv-x="519"
d="M117 358h-63q5 88 60.5 130.5t148.5 42.5q190 0 190 -166v-274q0 -38 37 -38q11 0 20 4v-53q-20 -4 -41 -4q-44 0 -59 22.5t-15 67.5h-2q-37 -55 -77.5 -80t-110.5 -25q-76 0 -124.5 38t-48.5 113q0 28 8 50.5t18.5 38t33 28t38.5 19t48.5 12.5t49.5 8.5t55 6.5l26 3
q44 4 62.5 17.5t18.5 52.5q0 59 -36 82.5t-99 23.5q-62 0 -99 -29.5t-39 -90.5zM390 200v82h-2q-8 -15 -53 -23q-17 -3 -54 -8.5t-57 -9t-48.5 -12t-43 -18.5t-26 -28.5t-11.5 -42.5q0 -46 34 -74t81 -28q76 0 128 44.5t52 117.5zM377 710h38q-7 -39 -28.5 -67t-58.5 -28
q-30 0 -75 23t-63 23q-38 0 -50 -51h-39q4 38 28 67t61 29q31 0 75 -22t60 -22q38 0 52 48z" />
    <glyph glyph-name="adieresis" unicode="&#xe4;" horiz-adv-x="519"
d="M117 358h-63q5 88 60.5 130.5t148.5 42.5q190 0 190 -166v-274q0 -38 37 -38q11 0 20 4v-53q-20 -4 -41 -4q-44 0 -59 22.5t-15 67.5h-2q-37 -55 -77.5 -80t-110.5 -25q-76 0 -124.5 38t-48.5 113q0 28 8 50.5t18.5 38t33 28t38.5 19t48.5 12.5t49.5 8.5t55 6.5l26 3
q44 4 62.5 17.5t18.5 52.5q0 59 -36 82.5t-99 23.5q-62 0 -99 -29.5t-39 -90.5zM390 200v82h-2q-8 -15 -53 -23q-17 -3 -54 -8.5t-57 -9t-48.5 -12t-43 -18.5t-26 -28.5t-11.5 -42.5q0 -46 34 -74t81 -28q76 0 128 44.5t52 117.5zM204 610h-68v101h68v-101zM381 610h-68v101
h68v-101z" />
    <glyph glyph-name="aring" unicode="&#xe5;" horiz-adv-x="519"
d="M117 358h-63q5 88 60.5 130.5t148.5 42.5q190 0 190 -166v-274q0 -38 37 -38q11 0 20 4v-53q-20 -4 -41 -4q-44 0 -59 22.5t-15 67.5h-2q-37 -55 -77.5 -80t-110.5 -25q-76 0 -124.5 38t-48.5 113q0 28 8 50.5t18.5 38t33 28t38.5 19t48.5 12.5t49.5 8.5t55 6.5l26 3
q44 4 62.5 17.5t18.5 52.5q0 59 -36 82.5t-99 23.5q-62 0 -99 -29.5t-39 -90.5zM390 200v82h-2q-8 -15 -53 -23q-17 -3 -54 -8.5t-57 -9t-48.5 -12t-43 -18.5t-26 -28.5t-11.5 -42.5q0 -46 34 -74t81 -28q76 0 128 44.5t52 117.5zM189 680q0 -29 19.5 -48.5t48.5 -19.5
t48.5 19.5t19.5 48.5t-19.5 48.5t-48.5 19.5t-48.5 -19.5t-19.5 -48.5zM150 680q0 44 31.5 75.5t75.5 31.5t75.5 -31.5t31.5 -75.5t-31.5 -75.5t-75.5 -31.5t-75.5 31.5t-31.5 75.5z" />
    <glyph glyph-name="ae" unicode="&#xe6;" horiz-adv-x="870"
d="M841 241h-388q-6 -87 38 -145t130 -58q123 0 153 129h63q-20 -88 -78 -135t-147 -47q-143 0 -189 130h-2q-8 -41 -43 -71.5t-80.5 -44.5t-92.5 -14q-76 0 -124.5 38t-48.5 113q0 28 8 50.5t18.5 38t33 28t38.5 19t48.5 12.5t49.5 8.5t55 6.5l26 3q44 4 62.5 17.5
t18.5 52.5q0 59 -36 82.5t-99 23.5q-62 0 -99 -29.5t-39 -90.5h-63q5 88 60.5 130.5t148.5 42.5q156 0 172 -107h2q19 51 70.5 79t110.5 28q61 0 106 -23.5t69.5 -65.5t36 -91.5t11.5 -109.5zM390 200v82h-2q-8 -15 -53 -23q-17 -3 -54 -8.5t-57 -9t-48.5 -12t-43 -18.5
t-26 -28.5t-11.5 -42.5q0 -46 34 -74t81 -28q76 0 128 44.5t52 117.5zM453 294h325q0 74 -45.5 129t-117.5 55q-75 0 -119.5 -54t-42.5 -130z" />
    <glyph glyph-name="ccedilla" unicode="&#xe7;" horiz-adv-x="519"
d="M487 354h-63q-27 124 -146 124q-85 0 -133 -65.5t-48 -154.5t48 -154.5t133 -65.5q58 0 101 42t49 105h63q-14 -95 -70 -147t-138 -53l-32 -39q22 5 50 3q66 -11 66 -66q0 -42 -33.5 -64t-76.5 -22q-53 0 -94 21l14 32q34 -14 79 -14q53 0 53 43q0 17 -12.5 27.5
t-30.5 10.5q-33 0 -51 -8l-16 15l50 63q-44 5 -76 20q-67 33 -103 99t-36 152q0 116 65 194.5t179 78.5q86 0 142 -45t67 -132z" />
    <glyph glyph-name="egrave" unicode="&#xe8;" horiz-adv-x="519"
d="M97 294h334q-2 75 -47 129.5t-117 54.5q-73 0 -117 -53.5t-53 -130.5zM494 241h-397q0 -79 43.5 -141t126.5 -62q129 0 162 132h63q-43 -185 -225 -185q-116 0 -174.5 77t-58.5 196q0 72 23 131.5t77.5 100.5t132.5 41q79 0 132.5 -43t75.5 -107t19 -140zM265 588
l-132 141h78l105 -141h-51z" />
    <glyph glyph-name="eacute" unicode="&#xe9;" horiz-adv-x="519"
d="M97 294h334q-2 75 -47 129.5t-117 54.5q-73 0 -117 -53.5t-53 -130.5zM494 241h-397q0 -79 43.5 -141t126.5 -62q129 0 162 132h63q-43 -185 -225 -185q-116 0 -174.5 77t-58.5 196q0 72 23 131.5t77.5 100.5t132.5 41q79 0 132.5 -43t75.5 -107t19 -140zM417 731
l-132 -141h-51l105 141h78z" />
    <glyph glyph-name="ecircumflex" unicode="&#xea;" horiz-adv-x="519"
d="M97 294h334q-2 75 -47 129.5t-117 54.5q-73 0 -117 -53.5t-53 -130.5zM494 241h-397q0 -79 43.5 -141t126.5 -62q129 0 162 132h63q-43 -185 -225 -185q-116 0 -174.5 77t-58.5 196q0 72 23 131.5t77.5 100.5t132.5 41q79 0 132.5 -43t75.5 -107t19 -140zM303 730
l114 -141h-65l-86 102l-88 -102h-58l114 141h69z" />
    <glyph glyph-name="edieresis" unicode="&#xeb;" horiz-adv-x="519"
d="M97 294h334q-2 75 -47 129.5t-117 54.5q-73 0 -117 -53.5t-53 -130.5zM494 241h-397q0 -79 43.5 -141t126.5 -62q129 0 162 132h63q-43 -185 -225 -185q-116 0 -174.5 77t-58.5 196q0 72 23 131.5t77.5 100.5t132.5 41q79 0 132.5 -43t75.5 -107t19 -140zM214 610h-68
v101h68v-101zM391 610h-68v101h68v-101z" />
    <glyph glyph-name="igrave" unicode="&#xec;" horiz-adv-x="185"
d="M124 0h-63v516h63v-516zM74 588l-132 141h78l105 -141h-51z" />
    <glyph glyph-name="iacute" unicode="&#xed;" horiz-adv-x="185"
d="M124 0h-63v516h63v-516zM242 731l-132 -141h-51l105 141h78z" />
    <glyph glyph-name="icircumflex" unicode="&#xee;" horiz-adv-x="185"
d="M124 0h-63v516h63v-516zM128 730l114 -141h-65l-86 102l-88 -102h-58l114 141h69z" />
    <glyph glyph-name="idieresis" unicode="&#xef;" horiz-adv-x="185"
d="M124 0h-63v516h63v-516zM39 610h-68v101h68v-101zM216 610h-68v101h68v-101z" />
    <glyph glyph-name="eth" unicode="&#xf0;"
d="M135 596l100 56q-59 38 -93 55l36 35q69 -37 104 -64l114 64l33 -32l-109 -61q196 -159 196 -391q0 -119 -62.5 -196t-182.5 -77q-116 0 -176.5 73.5t-60.5 190.5q0 109 63.5 183t173.5 74q96 0 133 -40h2q-46 87 -133 157l-105 -59zM276 453q-91 0 -135 -57.5
t-44 -147.5q0 -89 44.5 -149.5t132.5 -60.5q86 0 132.5 58t46.5 154q0 84 -44 143.5t-133 59.5z" />
    <glyph glyph-name="ntilde" unicode="&#xf1;" horiz-adv-x="537"
d="M59 0v516h63v-89h2q18 46 64 75t101 29q104 0 146.5 -50.5t42.5 -148.5v-332h-63v322q0 156 -131 156q-74 0 -117 -49.5t-45 -127.5v-301h-63zM387 710h38q-7 -39 -28.5 -67t-58.5 -28q-30 0 -75 23t-63 23q-38 0 -50 -51h-39q4 38 28 67t61 29q31 0 75 -22t60 -22
q38 0 52 48z" />
    <glyph glyph-name="ograve" unicode="&#xf2;"
d="M278 478q-85 0 -133 -65.5t-48 -154.5t48 -154.5t133 -65.5t133 65.5t48 154.5t-48 154.5t-133 65.5zM278 531q114 0 179 -78.5t65 -194.5t-65 -194.5t-179 -78.5t-179 78.5t-65 194.5t65 194.5t179 78.5zM278 588l-132 141h78l105 -141h-51z" />
    <glyph glyph-name="oacute" unicode="&#xf3;"
d="M278 478q-85 0 -133 -65.5t-48 -154.5t48 -154.5t133 -65.5t133 65.5t48 154.5t-48 154.5t-133 65.5zM278 531q114 0 179 -78.5t65 -194.5t-65 -194.5t-179 -78.5t-179 78.5t-65 194.5t65 194.5t179 78.5zM431 731l-132 -141h-51l105 141h78z" />
    <glyph glyph-name="ocircumflex" unicode="&#xf4;"
d="M278 478q-85 0 -133 -65.5t-48 -154.5t48 -154.5t133 -65.5t133 65.5t48 154.5t-48 154.5t-133 65.5zM278 531q114 0 179 -78.5t65 -194.5t-65 -194.5t-179 -78.5t-179 78.5t-65 194.5t65 194.5t179 78.5zM314 730l114 -141h-65l-86 102l-88 -102h-58l114 141h69z" />
    <glyph glyph-name="otilde" unicode="&#xf5;"
d="M278 478q-85 0 -133 -65.5t-48 -154.5t48 -154.5t133 -65.5t133 65.5t48 154.5t-48 154.5t-133 65.5zM278 531q114 0 179 -78.5t65 -194.5t-65 -194.5t-179 -78.5t-179 78.5t-65 194.5t65 194.5t179 78.5zM399 710h38q-7 -39 -28.5 -67t-58.5 -28q-30 0 -75 23t-63 23
q-38 0 -50 -51h-39q4 38 28 67t61 29q31 0 75 -22t60 -22q38 0 52 48z" />
    <glyph glyph-name="odieresis" unicode="&#xf6;"
d="M278 478q-85 0 -133 -65.5t-48 -154.5t48 -154.5t133 -65.5t133 65.5t48 154.5t-48 154.5t-133 65.5zM278 531q114 0 179 -78.5t65 -194.5t-65 -194.5t-179 -78.5t-179 78.5t-65 194.5t65 194.5t179 78.5zM225 610h-68v101h68v-101zM402 610h-68v101h68v-101z" />
    <glyph glyph-name="divide" unicode="&#xf7;" horiz-adv-x="600"
d="M244 50q0 23 16.5 39.5t39.5 16.5t39.5 -16.5t16.5 -39.5q0 -21 -17 -38.5t-38 -17.5q-23 0 -40 16.5t-17 39.5zM244 453q0 23 16.5 39.5t39.5 16.5t39.5 -16.5t16.5 -39.5q0 -21 -17 -38.5t-38 -17.5q-23 0 -40 16.5t-17 39.5zM552 225h-503v53h503v-53z" />
    <glyph glyph-name="oslash" unicode="&#xf8;"
d="M500 519l22 -20l-54 -59q54 -76 54 -182q0 -116 -65 -194.5t-179 -78.5q-105 0 -168 68l-59 -64l-22 20l61 67q-56 73 -56 182q0 116 65 194.5t179 78.5q107 0 170 -68zM424 392l-273 -295q47 -59 127 -59q85 0 133 65.5t48 154.5q0 77 -35 134zM133 123l273 295
q-48 60 -128 60q-85 0 -133 -65.5t-48 -154.5q0 -77 36 -135z" />
    <glyph glyph-name="ugrave" unicode="&#xf9;" horiz-adv-x="537"
d="M478 516v-516h-58v93h-2q-24 -51 -72 -79.5t-106 -28.5q-181 0 -181 196v335h63v-336q2 -72 33.5 -107t104.5 -35q76 0 115.5 60.5t39.5 146.5v271h63zM274 588l-132 141h78l105 -141h-51z" />
    <glyph glyph-name="uacute" unicode="&#xfa;" horiz-adv-x="537"
d="M478 516v-516h-58v93h-2q-24 -51 -72 -79.5t-106 -28.5q-181 0 -181 196v335h63v-336q2 -72 33.5 -107t104.5 -35q76 0 115.5 60.5t39.5 146.5v271h63zM422 731l-132 -141h-51l105 141h78z" />
    <glyph glyph-name="ucircumflex" unicode="&#xfb;" horiz-adv-x="537"
d="M478 516v-516h-58v93h-2q-24 -51 -72 -79.5t-106 -28.5q-181 0 -181 196v335h63v-336q2 -72 33.5 -107t104.5 -35q76 0 115.5 60.5t39.5 146.5v271h63zM303 730l114 -141h-65l-86 102l-88 -102h-58l114 141h69z" />
    <glyph glyph-name="udieresis" unicode="&#xfc;" horiz-adv-x="537"
d="M478 516v-516h-58v93h-2q-24 -51 -72 -79.5t-106 -28.5q-181 0 -181 196v335h63v-336q2 -72 33.5 -107t104.5 -35q76 0 115.5 60.5t39.5 146.5v271h63zM214 610h-68v101h68v-101zM391 610h-68v101h68v-101z" />
    <glyph glyph-name="yacute" unicode="&#xfd;" horiz-adv-x="463"
d="M208 2l-206 514h67l170 -440l159 440h63l-224 -595q-29 -68 -54 -90t-82 -22q-38 2 -48 5v53q25 -5 43 -5q20 0 34 5t24.5 18.5t15.5 23.5t16 34zM394 731l-132 -141h-51l105 141h78z" />
    <glyph glyph-name="thorn" unicode="&#xfe;" horiz-adv-x="574"
d="M60 -191v905h63v-296h2q19 53 69 83t110 30q112 0 172 -78t60 -195t-60 -195t-172 -78q-60 0 -110 29.5t-69 83.5h-2v-289h-63zM473 258q0 57 -16.5 105t-56 81.5t-96.5 33.5q-92 0 -136.5 -64.5t-44.5 -155.5t44.5 -155.5t136.5 -64.5q57 0 96.5 33.5t56 81.5t16.5 105z
" />
    <glyph glyph-name="ydieresis" unicode="&#xff;" horiz-adv-x="463"
d="M208 2l-206 514h67l170 -440l159 440h63l-224 -595q-29 -68 -54 -90t-82 -22q-38 2 -48 5v53q25 -5 43 -5q20 0 34 5t24.5 18.5t15.5 23.5t16 34zM185 610h-68v101h68v-101zM362 610h-68v101h68v-101z" />
    <glyph glyph-name="Amacron" unicode="&#x100;" horiz-adv-x="630"
d="M316 646l-143 -366h281zM-7 0l288 714h76l280 -714h-73l-87 222h-325l-86 -222h-73zM480 828h-329v45h329v-45z" />
    <glyph glyph-name="amacron" unicode="&#x101;" horiz-adv-x="519"
d="M117 358h-63q5 88 60.5 130.5t148.5 42.5q190 0 190 -166v-274q0 -38 37 -38q11 0 20 4v-53q-20 -4 -41 -4q-44 0 -59 22.5t-15 67.5h-2q-37 -55 -77.5 -80t-110.5 -25q-76 0 -124.5 38t-48.5 113q0 28 8 50.5t18.5 38t33 28t38.5 19t48.5 12.5t49.5 8.5t55 6.5l26 3
q44 4 62.5 17.5t18.5 52.5q0 59 -36 82.5t-99 23.5q-62 0 -99 -29.5t-39 -90.5zM390 200v82h-2q-8 -15 -53 -23q-17 -3 -54 -8.5t-57 -9t-48.5 -12t-43 -18.5t-26 -28.5t-11.5 -42.5q0 -46 34 -74t81 -28q76 0 128 44.5t52 117.5zM428 638h-329v45h329v-45z" />
    <glyph glyph-name="Abreve" unicode="&#x102;" horiz-adv-x="630"
d="M316 646l-143 -366h281zM-7 0l288 714h76l280 -714h-73l-87 222h-325l-86 -222h-73zM175 914h39q2 -38 32.5 -60t70.5 -22t70 22t36 60h39q-8 -59 -46.5 -93t-98.5 -34q-61 0 -99 33.5t-43 93.5z" />
    <glyph glyph-name="abreve" unicode="&#x103;" horiz-adv-x="519"
d="M117 358h-63q5 88 60.5 130.5t148.5 42.5q190 0 190 -166v-274q0 -38 37 -38q11 0 20 4v-53q-20 -4 -41 -4q-44 0 -59 22.5t-15 67.5h-2q-37 -55 -77.5 -80t-110.5 -25q-76 0 -124.5 38t-48.5 113q0 28 8 50.5t18.5 38t33 28t38.5 19t48.5 12.5t49.5 8.5t55 6.5l26 3
q44 4 62.5 17.5t18.5 52.5q0 59 -36 82.5t-99 23.5q-62 0 -99 -29.5t-39 -90.5zM390 200v82h-2q-8 -15 -53 -23q-17 -3 -54 -8.5t-57 -9t-48.5 -12t-43 -18.5t-26 -28.5t-11.5 -42.5q0 -46 34 -74t81 -28q76 0 128 44.5t52 117.5zM118 724h39q2 -38 32.5 -60t70.5 -22t70 22
t36 60h39q-8 -59 -46.5 -93t-98.5 -34q-61 0 -99 33.5t-43 93.5z" />
    <glyph glyph-name="Aogonek" unicode="&#x104;" horiz-adv-x="630"
d="M637 0h-35q-52 -43 -67 -67t-15 -50q0 -23 12.5 -35t31.5 -12q34 0 55 41l29 -13q-30 -67 -98 -67q-43 0 -67 22.5t-24 59.5q0 57 105 121l-87 222h-325l-86 -222h-73l288 714h76zM316 646l-143 -366h281z" />
    <glyph glyph-name="aogonek" unicode="&#x105;" horiz-adv-x="519"
d="M117 358h-63q5 88 60.5 130.5t148.5 42.5q190 0 190 -166v-274q0 -38 37 -38q11 0 20 4v-53q-20 -4 -41 -4h-4q-52 -43 -67 -67t-15 -50q0 -23 12.5 -35t31.5 -12q34 0 55 41l29 -13q-30 -67 -98 -67q-43 0 -67 22.5t-24 59.5q0 35 45 78q19 19 66 48q-1 1 -3 1
q-35 18 -35 84h-2q-37 -55 -77.5 -80t-110.5 -25q-76 0 -124.5 38t-48.5 113q0 28 8 50.5t18.5 38t33 28t38.5 19t48.5 12.5t49.5 8.5t55 6.5l26 3q44 4 62.5 17.5t18.5 52.5q0 59 -36 82.5t-99 23.5q-62 0 -99 -29.5t-39 -90.5zM390 200v82h-2q-8 -15 -53 -23
q-17 -3 -54 -8.5t-57 -9t-48.5 -12t-43 -18.5t-26 -28.5t-11.5 -42.5q0 -46 34 -74t81 -28q76 0 128 44.5t52 117.5z" />
    <glyph glyph-name="Cacute" unicode="&#x106;" horiz-adv-x="704"
d="M662 498h-68q-18 81 -78.5 127t-140.5 46q-68 0 -121 -27t-84.5 -72t-47.5 -99.5t-16 -115.5t16 -115.5t47.5 -99.5t84.5 -72t121 -27q96 0 157.5 65t71.5 164h68q-14 -133 -93 -210t-204 -77q-82 0 -147.5 30.5t-106 82.5t-62 118t-21.5 141t21.5 141t62 118t106 82.5
t147.5 30.5q108 0 190.5 -62t96.5 -169zM526 921l-132 -141h-51l105 141h78z" />
    <glyph glyph-name="cacute" unicode="&#x107;" horiz-adv-x="519"
d="M487 354h-63q-27 124 -146 124q-85 0 -133 -65.5t-48 -154.5t48 -154.5t133 -65.5q58 0 101 42t49 105h63q-13 -94 -69.5 -147t-143.5 -53q-114 0 -179 78.5t-65 194.5t65 194.5t179 78.5q86 0 142 -45t67 -132zM429 731l-132 -141h-51l105 141h78z" />
    <glyph glyph-name="Ccircumflex" unicode="&#x108;" horiz-adv-x="704"
d="M662 498h-68q-18 81 -78.5 127t-140.5 46q-68 0 -121 -27t-84.5 -72t-47.5 -99.5t-16 -115.5t16 -115.5t47.5 -99.5t84.5 -72t121 -27q96 0 157.5 65t71.5 164h68q-14 -133 -93 -210t-204 -77q-82 0 -147.5 30.5t-106 82.5t-62 118t-21.5 141t21.5 141t62 118t106 82.5
t147.5 30.5q108 0 190.5 -62t96.5 -169zM409 920l114 -141h-65l-86 102l-88 -102h-58l114 141h69z" />
    <glyph glyph-name="ccircumflex" unicode="&#x109;" horiz-adv-x="519"
d="M487 354h-63q-27 124 -146 124q-85 0 -133 -65.5t-48 -154.5t48 -154.5t133 -65.5q58 0 101 42t49 105h63q-13 -94 -69.5 -147t-143.5 -53q-114 0 -179 78.5t-65 194.5t65 194.5t179 78.5q86 0 142 -45t67 -132zM312 730l114 -141h-65l-86 102l-88 -102h-58l114 141h69z
" />
    <glyph glyph-name="Cdotaccent" unicode="&#x10a;" horiz-adv-x="704"
d="M662 498h-68q-18 81 -78.5 127t-140.5 46q-68 0 -121 -27t-84.5 -72t-47.5 -99.5t-16 -115.5t16 -115.5t47.5 -99.5t84.5 -72t121 -27q96 0 157.5 65t71.5 164h68q-14 -133 -93 -210t-204 -77q-82 0 -147.5 30.5t-106 82.5t-62 118t-21.5 141t21.5 141t62 118t106 82.5
t147.5 30.5q108 0 190.5 -62t96.5 -169zM405 800h-68v101h68v-101z" />
    <glyph glyph-name="cdotaccent" unicode="&#x10b;" horiz-adv-x="519"
d="M487 354h-63q-27 124 -146 124q-85 0 -133 -65.5t-48 -154.5t48 -154.5t133 -65.5q58 0 101 42t49 105h63q-13 -94 -69.5 -147t-143.5 -53q-114 0 -179 78.5t-65 194.5t65 194.5t179 78.5q86 0 142 -45t67 -132zM310 610h-68v101h68v-101z" />
    <glyph glyph-name="Ccaron" unicode="&#x10c;" horiz-adv-x="704"
d="M662 498h-68q-18 81 -78.5 127t-140.5 46q-68 0 -121 -27t-84.5 -72t-47.5 -99.5t-16 -115.5t16 -115.5t47.5 -99.5t84.5 -72t121 -27q96 0 157.5 65t71.5 164h68q-14 -133 -93 -210t-204 -77q-82 0 -147.5 30.5t-106 82.5t-62 118t-21.5 141t21.5 141t62 118t106 82.5
t147.5 30.5q108 0 190.5 -62t96.5 -169zM334 780l-114 141h65l86 -102l88 102h58l-114 -141h-69z" />
    <glyph glyph-name="ccaron" unicode="&#x10d;" horiz-adv-x="519"
d="M487 354h-63q-27 124 -146 124q-85 0 -133 -65.5t-48 -154.5t48 -154.5t133 -65.5q58 0 101 42t49 105h63q-13 -94 -69.5 -147t-143.5 -53q-114 0 -179 78.5t-65 194.5t65 194.5t179 78.5q86 0 142 -45t67 -132zM242 590l-114 141h65l86 -102l88 102h58l-114 -141h-69z
" />
    <glyph glyph-name="Dcaron" unicode="&#x10e;" horiz-adv-x="685"
d="M72 0v714h247q328 -8 328 -357t-328 -357h-247zM140 656v-598h145q155 0 224.5 70t69.5 229t-69.5 229t-224.5 70h-145zM270 780l-114 141h65l86 -102l88 102h58l-114 -141h-69z" />
    <glyph glyph-name="dcaron" unicode="&#x10f;" horiz-adv-x="645"
d="M514 714v-714h-58v98h-2q-20 -50 -73 -81.5t-111 -31.5q-112 0 -172 78t-60 195t60 195t172 78q60 0 110 -30t69 -83h2v296h63zM101 258q0 -57 16.5 -105t56 -81.5t96.5 -33.5q92 0 136.5 64.5t44.5 155.5t-44.5 155.5t-136.5 64.5q-57 0 -96.5 -33.5t-56 -81.5
t-16.5 -105zM697 714l-86 -141h-47l55 141h78z" />
    <glyph glyph-name="Dcroat" unicode="&#x110;" horiz-adv-x="685"
d="M72 393v321h247q328 -8 328 -357t-328 -357h-247v348h-72v45h72zM140 656v-263h236v-45h-236v-290h145q155 0 224.5 70t69.5 229t-69.5 229t-224.5 70h-145z" />
    <glyph glyph-name="dcroat" unicode="&#x111;" horiz-adv-x="598"
d="M514 584v-584h-58v98h-2q-20 -50 -73 -81.5t-111 -31.5q-112 0 -172 78t-60 195t60 195t172 78q60 0 110 -30t69 -83h2v166h-173v45h173v85h63v-85h84v-45h-84zM101 258q0 -57 16.5 -105t56 -81.5t96.5 -33.5q92 0 136.5 64.5t44.5 155.5t-44.5 155.5t-136.5 64.5
q-57 0 -96.5 -33.5t-56 -81.5t-16.5 -105z" />
    <glyph glyph-name="Emacron" unicode="&#x112;" horiz-adv-x="593"
d="M72 0v714h493v-58h-425v-258h398v-58h-398v-282h430v-58h-498zM485 828h-329v45h329v-45z" />
    <glyph glyph-name="emacron" unicode="&#x113;" horiz-adv-x="519"
d="M97 294h334q-2 75 -47 129.5t-117 54.5q-73 0 -117 -53.5t-53 -130.5zM494 241h-397q0 -79 43.5 -141t126.5 -62q129 0 162 132h63q-43 -185 -225 -185q-116 0 -174.5 77t-58.5 196q0 72 23 131.5t77.5 100.5t132.5 41q79 0 132.5 -43t75.5 -107t19 -140zM431 638h-329
v45h329v-45z" />
    <glyph glyph-name="Ebreve" unicode="&#x114;" horiz-adv-x="593"
d="M72 0v714h493v-58h-425v-258h398v-58h-398v-282h430v-58h-498zM174 914h39q2 -38 32.5 -60t70.5 -22t70 22t36 60h39q-8 -59 -46.5 -93t-98.5 -34q-61 0 -99 33.5t-43 93.5z" />
    <glyph glyph-name="ebreve" unicode="&#x115;" horiz-adv-x="519"
d="M97 294h334q-2 75 -47 129.5t-117 54.5q-73 0 -117 -53.5t-53 -130.5zM494 241h-397q0 -79 43.5 -141t126.5 -62q129 0 162 132h63q-43 -185 -225 -185q-116 0 -174.5 77t-58.5 196q0 72 23 131.5t77.5 100.5t132.5 41q79 0 132.5 -43t75.5 -107t19 -140zM128 724h39
q2 -38 32.5 -60t70.5 -22t70 22t36 60h39q-8 -59 -46.5 -93t-98.5 -34q-61 0 -99 33.5t-43 93.5z" />
    <glyph glyph-name="Edotaccent" unicode="&#x116;" horiz-adv-x="593"
d="M72 0v714h493v-58h-425v-258h398v-58h-398v-282h430v-58h-498zM353 800h-68v101h68v-101z" />
    <glyph glyph-name="edotaccent" unicode="&#x117;" horiz-adv-x="519"
d="M97 294h334q-2 75 -47 129.5t-117 54.5q-73 0 -117 -53.5t-53 -130.5zM494 241h-397q0 -79 43.5 -141t126.5 -62q129 0 162 132h63q-43 -185 -225 -185q-116 0 -174.5 77t-58.5 196q0 72 23 131.5t77.5 100.5t132.5 41q79 0 132.5 -43t75.5 -107t19 -140zM300 610h-68
v101h68v-101z" />
    <glyph glyph-name="Eogonek" unicode="&#x118;" horiz-adv-x="593"
d="M570 0h-46q-52 -43 -67 -67t-15 -50q0 -23 12.5 -35t31.5 -12q34 0 55 41l29 -13q-30 -67 -98 -67q-43 0 -67 22.5t-24 59.5q0 57 105 121h-414v714h493v-58h-425v-258h398v-58h-398v-282h430v-58z" />
    <glyph glyph-name="eogonek" unicode="&#x119;" horiz-adv-x="519"
d="M494 241h-397q0 -79 43.5 -141t126.5 -62q129 0 162 132h63q-19 -87 -74 -137q-43 -38 -117 -46q-11 -9 -28 -26q-24 -25 -30.5 -41t-6.5 -37q0 -23 12.5 -35t31.5 -12q34 0 55 41l29 -13q-30 -67 -98 -67q-43 0 -67 22.5t-24 59.5q0 35 45 78q12 12 36 28q-52 1 -95 22
q-64 32 -95.5 98t-31.5 153q0 72 23 131.5t77.5 100.5t132.5 41q79 0 132.5 -43t75.5 -107t19 -140zM97 294h334q-2 75 -47 129.5t-117 54.5q-73 0 -117 -53.5t-53 -130.5z" />
    <glyph glyph-name="Ecaron" unicode="&#x11a;" horiz-adv-x="593"
d="M72 0v714h493v-58h-425v-258h398v-58h-398v-282h430v-58h-498zM280 780l-114 141h65l86 -102l88 102h58l-114 -141h-69z" />
    <glyph glyph-name="ecaron" unicode="&#x11b;" horiz-adv-x="519"
d="M97 294h334q-2 75 -47 129.5t-117 54.5q-73 0 -117 -53.5t-53 -130.5zM494 241h-397q0 -79 43.5 -141t126.5 -62q129 0 162 132h63q-43 -185 -225 -185q-116 0 -174.5 77t-58.5 196q0 72 23 131.5t77.5 100.5t132.5 41q79 0 132.5 -43t75.5 -107t19 -140zM234 590
l-114 141h65l86 -102l88 102h58l-114 -141h-69z" />
    <glyph glyph-name="Gcircumflex" unicode="&#x11c;" horiz-adv-x="741"
d="M682 363v-363h-49l-9 130h-2q-34 -73 -99.5 -109t-147.5 -36t-147.5 30.5t-106 82.5t-62 118t-21.5 141t21.5 141t62 118t106 82.5t147.5 30.5q116 0 197 -61.5t101 -175.5h-68q-7 67 -71 123t-159 56q-68 0 -121 -27t-84.5 -72t-47.5 -99.5t-16 -115.5t16 -115.5
t47.5 -99.5t84.5 -72t121 -27q116 0 182.5 73t64.5 189h-243v58h303zM408 920l114 -141h-65l-86 102l-88 -102h-58l114 141h69z" />
    <glyph glyph-name="gcircumflex" unicode="&#x11d;"
d="M496 516v-474q0 -121 -54 -184.5t-175 -63.5q-85 0 -146.5 39.5t-67.5 116.5h63q9 -53 51 -78t100 -25q86 0 126 49t40 146v70h-2q-22 -49 -65.5 -77.5t-98.5 -28.5q-118 0 -175.5 73t-57.5 192q0 111 62.5 185.5t170.5 74.5q55 0 99.5 -29.5t64.5 -74.5h2v89h63zM267 59
q78 0 122 60.5t44 144.5q0 86 -41.5 150t-124.5 64q-84 0 -127 -62.5t-43 -151.5q0 -85 43.5 -145t126.5 -60zM325 730l114 -141h-65l-86 102l-88 -102h-58l114 141h69z" />
    <glyph glyph-name="Gbreve" unicode="&#x11e;" horiz-adv-x="741"
d="M682 363v-363h-49l-9 130h-2q-34 -73 -99.5 -109t-147.5 -36t-147.5 30.5t-106 82.5t-62 118t-21.5 141t21.5 141t62 118t106 82.5t147.5 30.5q116 0 197 -61.5t101 -175.5h-68q-7 67 -71 123t-159 56q-68 0 -121 -27t-84.5 -72t-47.5 -99.5t-16 -115.5t16 -115.5
t47.5 -99.5t84.5 -72t121 -27q116 0 182.5 73t64.5 189h-243v58h303zM231 914h39q2 -38 32.5 -60t70.5 -22t70 22t36 60h39q-8 -59 -46.5 -93t-98.5 -34q-61 0 -99 33.5t-43 93.5z" />
    <glyph glyph-name="gbreve" unicode="&#x11f;"
d="M496 516v-474q0 -121 -54 -184.5t-175 -63.5q-85 0 -146.5 39.5t-67.5 116.5h63q9 -53 51 -78t100 -25q86 0 126 49t40 146v70h-2q-22 -49 -65.5 -77.5t-98.5 -28.5q-118 0 -175.5 73t-57.5 192q0 111 62.5 185.5t170.5 74.5q55 0 99.5 -29.5t64.5 -74.5h2v89h63zM267 59
q78 0 122 60.5t44 144.5q0 86 -41.5 150t-124.5 64q-84 0 -127 -62.5t-43 -151.5q0 -85 43.5 -145t126.5 -60zM125 724h39q2 -38 32.5 -60t70.5 -22t70 22t36 60h39q-8 -59 -46.5 -93t-98.5 -34q-61 0 -99 33.5t-43 93.5z" />
    <glyph glyph-name="Gdotaccent" unicode="&#x120;" horiz-adv-x="741"
d="M682 363v-363h-49l-9 130h-2q-34 -73 -99.5 -109t-147.5 -36t-147.5 30.5t-106 82.5t-62 118t-21.5 141t21.5 141t62 118t106 82.5t147.5 30.5q116 0 197 -61.5t101 -175.5h-68q-7 67 -71 123t-159 56q-68 0 -121 -27t-84.5 -72t-47.5 -99.5t-16 -115.5t16 -115.5
t47.5 -99.5t84.5 -72t121 -27q116 0 182.5 73t64.5 189h-243v58h303zM410 800h-68v101h68v-101z" />
    <glyph glyph-name="gdotaccent" unicode="&#x121;"
d="M496 516v-474q0 -121 -54 -184.5t-175 -63.5q-85 0 -146.5 39.5t-67.5 116.5h63q9 -53 51 -78t100 -25q86 0 126 49t40 146v70h-2q-22 -49 -65.5 -77.5t-98.5 -28.5q-118 0 -175.5 73t-57.5 192q0 111 62.5 185.5t170.5 74.5q55 0 99.5 -29.5t64.5 -74.5h2v89h63zM267 59
q78 0 122 60.5t44 144.5q0 86 -41.5 150t-124.5 64q-84 0 -127 -62.5t-43 -151.5q0 -85 43.5 -145t126.5 -60zM311 610h-68v101h68v-101z" />
    <glyph glyph-name="Gcommaaccent" unicode="&#x122;" horiz-adv-x="741"
d="M682 363v-363h-49l-9 130h-2q-34 -73 -99.5 -109t-147.5 -36t-147.5 30.5t-106 82.5t-62 118t-21.5 141t21.5 141t62 118t106 82.5t147.5 30.5q116 0 197 -61.5t101 -175.5h-68q-7 67 -71 123t-159 56q-68 0 -121 -27t-84.5 -72t-47.5 -99.5t-16 -115.5t16 -115.5
t47.5 -99.5t84.5 -72t121 -27q116 0 182.5 73t64.5 189h-243v58h303zM331 -50h86v-80q0 -69 -86 -73v28q36 7 39 34h-39v91z" />
    <glyph glyph-name="gcommaaccent" unicode="&#x123;"
d="M496 516v-474q0 -121 -54 -184.5t-175 -63.5q-85 0 -146.5 39.5t-67.5 116.5h63q9 -53 51 -78t100 -25q86 0 126 49t40 146v70h-2q-22 -49 -65.5 -77.5t-98.5 -28.5q-118 0 -175.5 73t-57.5 192q0 111 62.5 185.5t170.5 74.5q55 0 99.5 -29.5t64.5 -74.5h2v89h63zM267 59
q78 0 122 60.5t44 144.5q0 86 -41.5 150t-124.5 64q-84 0 -127 -62.5t-43 -151.5q0 -85 43.5 -145t126.5 -60zM322 623h-86v80q0 69 86 73v-28q-36 -7 -39 -34h39v-91z" />
    <glyph glyph-name="Hcircumflex" unicode="&#x124;" horiz-adv-x="704"
d="M72 0v714h68v-310h424v310h68v-714h-68v346h-424v-346h-68zM388 920l114 -141h-65l-86 102l-88 -102h-58l114 141h69z" />
    <glyph glyph-name="hcircumflex" unicode="&#x125;" horiz-adv-x="537"
d="M59 0v714h63v-287h2q18 46 64 75t101 29q104 0 146.5 -50.5t42.5 -148.5v-332h-63v322q0 156 -131 156q-74 0 -117 -49.5t-45 -127.5v-301h-63zM300 920l114 -141h-65l-86 102l-88 -102h-58l114 141h69z" />
    <glyph glyph-name="Hbar" unicode="&#x126;" horiz-adv-x="704"
d="M72 0v714h68v-198h424v198h68v-714h-68v336h-424v-336h-68zM564 471h-424v-77h424v77z" />
    <glyph glyph-name="hbar" unicode="&#x127;" horiz-adv-x="560"
d="M82 629v85h63v-85h153v-45h-153v-157h2q18 46 64 75t101 29q104 0 146.5 -50.5t42.5 -148.5v-332h-63v322q0 156 -131 156q-74 0 -117 -49.5t-45 -127.5v-301h-63v584h-82v45h82z" />
    <glyph glyph-name="Itilde" unicode="&#x128;" horiz-adv-x="222"
d="M77 0v714h68v-714h-68zM230 900h38q-7 -39 -28.5 -67t-58.5 -28q-29 0 -74.5 23t-63.5 23q-38 0 -50 -51h-39q4 38 28 67t61 29q31 0 75 -22t60 -22q38 0 52 48z" />
    <glyph glyph-name="itilde" unicode="&#x129;" horiz-adv-x="185"
d="M124 0h-63v516h63v-516zM212 710h38q-7 -39 -28.5 -67t-58.5 -28q-29 0 -74.5 23t-63.5 23q-38 0 -50 -51h-39q4 38 28 67t61 29q31 0 75 -22t60 -22q38 0 52 48z" />
    <glyph glyph-name="Imacron" unicode="&#x12a;" horiz-adv-x="222"
d="M77 0v714h68v-714h-68zM276 828h-329v45h329v-45z" />
    <glyph glyph-name="imacron" unicode="&#x12b;" horiz-adv-x="185"
d="M124 0h-63v516h63v-516zM258 638h-329v45h329v-45z" />
    <glyph glyph-name="Iogonek" unicode="&#x12e;" horiz-adv-x="222"
d="M145 714v-714q-47 -44 -60.5 -67.5t-13.5 -49.5q0 -23 11.5 -35t28.5 -12q31 0 49 41l27 -13q-28 -67 -89 -67q-39 0 -60.5 22.5t-21.5 59.5q0 58 95 121h-34v714h68z" />
    <glyph glyph-name="iogonek" unicode="&#x12f;" horiz-adv-x="185"
d="M124 516v-516q-47 -43 -60.5 -67t-13.5 -50q0 -23 12 -35t28 -12q31 0 49 41l26 -13q-26 -67 -88 -67q-38 0 -60 22.5t-22 59.5q0 56 95 121h-29v516h63zM61 613v101h63v-101h-63z" />
    <glyph glyph-name="Idotaccent" unicode="&#x130;" horiz-adv-x="222"
d="M77 0v714h68v-714h-68zM145 800h-68v101h68v-101z" />
    <glyph glyph-name="dotlessi" unicode="&#x131;" horiz-adv-x="185"
d="M124 0h-63v516h63v-516z" />
    <glyph glyph-name="Jcircumflex" unicode="&#x134;" horiz-adv-x="500"
d="M360 228v486h68v-515q0 -111 -47.5 -162.5t-160.5 -51.5q-199 0 -199 244h68q0 -3 0.5 -19.5t1 -23.5t2.5 -24t5 -25.5l8 -23t11.5 -22.5t17 -19t23.5 -16t30 -9t38 -4q78 0 106 41.5t28 143.5zM425 920l114 -141h-65l-86 102l-88 -102h-58l114 141h69z" />
    <glyph glyph-name="jcircumflex" unicode="&#x135;" horiz-adv-x="185"
d="M61 -63v579h63v-564q0 -143 -110 -143q-8 0 -22 1t-22 1v52q22 -2 34 -1q34 0 45.5 19t11.5 56zM125 730l114 -141h-65l-86 102l-88 -102h-58l114 141h69z" />
    <glyph glyph-name="Kcommaaccent" unicode="&#x136;" horiz-adv-x="648"
d="M72 0v714h68v-384l415 384h92l-319 -295l334 -419h-88l-297 372l-137 -127v-245h-68zM291 -50h86v-80q0 -69 -86 -73v28q36 7 39 34h-39v91z" />
    <glyph glyph-name="kcommaaccent" unicode="&#x137;" horiz-adv-x="500"
d="M60 0v714h63v-448l286 250h84l-220 -191l235 -325h-79l-204 281l-102 -85v-196h-63zM221 -50h86v-80q0 -69 -86 -73v28q36 7 39 34h-39v91z" />
    <glyph glyph-name="Lacute" unicode="&#x139;" horiz-adv-x="537"
d="M72 0v714h68v-656h400v-58h-468zM262 921l-132 -141h-51l105 141h78z" />
    <glyph glyph-name="lacute" unicode="&#x13a;" horiz-adv-x="185"
d="M61 0v714h63v-714h-63zM244 921l-132 -141h-51l105 141h78z" />
    <glyph glyph-name="Lcommaaccent" unicode="&#x13b;" horiz-adv-x="537"
d="M72 0v714h68v-656h400v-58h-468zM250 -50h86v-80q0 -69 -86 -73v28q36 7 39 34h-39v91z" />
    <glyph glyph-name="lcommaaccent" unicode="&#x13c;" horiz-adv-x="185"
d="M61 0v714h63v-714h-63zM50 -50h86v-80q0 -69 -86 -73v28q36 7 39 34h-39v91z" />
    <glyph glyph-name="Lcaron" unicode="&#x13d;" horiz-adv-x="537"
d="M72 0v714h68v-656h400v-58h-468zM378 714l-86 -141h-47l55 141h78z" />
    <glyph glyph-name="lcaron" unicode="&#x13e;" horiz-adv-x="255"
d="M61 0v714h63v-714h-63zM307 714l-86 -141h-47l55 141h78z" />
    <glyph glyph-name="Ldot" unicode="&#x13f;" horiz-adv-x="537"
d="M72 0v714h68v-656h400v-58h-468zM356 415h-68v101h68v-101z" />
    <glyph glyph-name="ldot" unicode="&#x140;" horiz-adv-x="296"
d="M61 0v714h63v-714h-63zM256 415h-68v101h68v-101z" />
    <glyph glyph-name="Lslash" unicode="&#x141;" horiz-adv-x="537"
d="M72 306v408h68v-361l243 168v-56l-243 -167v-240h400v-58h-468v251l-82 -57v56z" />
    <glyph glyph-name="lslash" unicode="&#x142;" horiz-adv-x="185"
d="M61 395v319h63v-267l67 55v-55l-67 -55v-392h-63v340l-67 -55v55z" />
    <glyph glyph-name="Nacute" unicode="&#x143;" horiz-adv-x="704"
d="M71 0v714h76l416 -604h2v604h68v-714h-76l-416 604h-2v-604h-68zM497 921l-132 -141h-51l105 141h78z" />
    <glyph glyph-name="nacute" unicode="&#x144;" horiz-adv-x="537"
d="M59 0v516h63v-89h2q18 46 64 75t101 29q104 0 146.5 -50.5t42.5 -148.5v-332h-63v322q0 156 -131 156q-74 0 -117 -49.5t-45 -127.5v-301h-63zM419 731l-132 -141h-51l105 141h78z" />
    <glyph glyph-name="Ncommaaccent" unicode="&#x145;" horiz-adv-x="704"
d="M71 0v714h76l416 -604h2v604h68v-714h-76l-416 604h-2v-604h-68zM303 -50h86v-80q0 -69 -86 -73v28q36 7 39 34h-39v91z" />
    <glyph glyph-name="ncommaaccent" unicode="&#x146;" horiz-adv-x="537"
d="M59 0v516h63v-89h2q18 46 64 75t101 29q104 0 146.5 -50.5t42.5 -148.5v-332h-63v322q0 156 -131 156q-74 0 -117 -49.5t-45 -127.5v-301h-63zM231 -50h86v-80q0 -69 -86 -73v28q36 7 39 34h-39v91z" />
    <glyph glyph-name="Ncaron" unicode="&#x147;" horiz-adv-x="704"
d="M71 0v714h76l416 -604h2v604h68v-714h-76l-416 604h-2v-604h-68zM311 780l-114 141h65l86 -102l88 102h58l-114 -141h-69z" />
    <glyph glyph-name="ncaron" unicode="&#x148;" horiz-adv-x="537"
d="M59 0v516h63v-89h2q18 46 64 75t101 29q104 0 146.5 -50.5t42.5 -148.5v-332h-63v322q0 156 -131 156q-74 0 -117 -49.5t-45 -127.5v-301h-63zM233 590l-114 141h65l86 -102l88 102h58l-114 -141h-69z" />
    <glyph glyph-name="Omacron" unicode="&#x14c;" horiz-adv-x="741"
d="M102 357q0 -61 16 -115.5t47.5 -99.5t84.5 -72t121 -27t121 27t84 72t47 99.5t16 115.5t-16 115.5t-47 99.5t-84 72t-121 27t-121 -27t-84.5 -72t-47.5 -99.5t-16 -115.5zM34 357q0 75 21.5 141t62 118t106 82.5t147.5 30.5q108 0 185.5 -53t114 -135.5t36.5 -183.5
t-36.5 -183.5t-114 -135.5t-185.5 -53q-82 0 -147.5 30.5t-106 82.5t-62 118t-21.5 141zM537 828h-329v45h329v-45z" />
    <glyph glyph-name="omacron" unicode="&#x14d;"
d="M278 478q-85 0 -133 -65.5t-48 -154.5t48 -154.5t133 -65.5t133 65.5t48 154.5t-48 154.5t-133 65.5zM278 531q114 0 179 -78.5t65 -194.5t-65 -194.5t-179 -78.5t-179 78.5t-65 194.5t65 194.5t179 78.5zM447 638h-329v45h329v-45z" />
    <glyph glyph-name="Obreve" unicode="&#x14e;" horiz-adv-x="741"
d="M102 357q0 -61 16 -115.5t47.5 -99.5t84.5 -72t121 -27t121 27t84 72t47 99.5t16 115.5t-16 115.5t-47 99.5t-84 72t-121 27t-121 -27t-84.5 -72t-47.5 -99.5t-16 -115.5zM34 357q0 75 21.5 141t62 118t106 82.5t147.5 30.5q108 0 185.5 -53t114 -135.5t36.5 -183.5
t-36.5 -183.5t-114 -135.5t-185.5 -53q-82 0 -147.5 30.5t-106 82.5t-62 118t-21.5 141zM229 914h39q2 -38 32.5 -60t70.5 -22t70 22t36 60h39q-8 -59 -46.5 -93t-98.5 -34q-61 0 -99 33.5t-43 93.5z" />
    <glyph glyph-name="obreve" unicode="&#x14f;"
d="M278 478q-85 0 -133 -65.5t-48 -154.5t48 -154.5t133 -65.5t133 65.5t48 154.5t-48 154.5t-133 65.5zM278 531q114 0 179 -78.5t65 -194.5t-65 -194.5t-179 -78.5t-179 78.5t-65 194.5t65 194.5t179 78.5zM138 724h39q2 -38 32.5 -60t70.5 -22t70 22t36 60h39
q-8 -59 -46.5 -93t-98.5 -34q-61 0 -99 33.5t-43 93.5z" />
    <glyph glyph-name="Ohungarumlaut" unicode="&#x150;" horiz-adv-x="741"
d="M102 357q0 -61 16 -115.5t47.5 -99.5t84.5 -72t121 -27t121 27t84 72t47 99.5t16 115.5t-16 115.5t-47 99.5t-84 72t-121 27t-121 -27t-84.5 -72t-47.5 -99.5t-16 -115.5zM34 357q0 75 21.5 141t62 118t106 82.5t147.5 30.5q108 0 185.5 -53t114 -135.5t36.5 -183.5
t-36.5 -183.5t-114 -135.5t-185.5 -53q-82 0 -147.5 30.5t-106 82.5t-62 118t-21.5 141zM470 780h-51l101 141h76zM314 780h-51l101 141h76z" />
    <glyph glyph-name="ohungarumlaut" unicode="&#x151;"
d="M278 478q-85 0 -133 -65.5t-48 -154.5t48 -154.5t133 -65.5t133 65.5t48 154.5t-48 154.5t-133 65.5zM278 531q114 0 179 -78.5t65 -194.5t-65 -194.5t-179 -78.5t-179 78.5t-65 194.5t65 194.5t179 78.5zM378 590h-51l101 141h76zM222 590h-51l101 141h76z" />
    <glyph glyph-name="OE" unicode="&#x152;" horiz-adv-x="1074"
d="M637 656v-258h368v-58h-368v-282h409v-58h-477v70q-35 -41 -87.5 -63t-106.5 -22q-154 0 -246 108t-92 264t92 264t246 108q127 0 194 -74v59h474v-58h-406zM569 177v332q0 46 -5 66q-17 43 -75 69.5t-114 26.5q-125 0 -197.5 -91t-72.5 -223t72.5 -223t197.5 -91
q114 0 176 79q16 20 18 55z" />
    <glyph glyph-name="oe" unicode="&#x153;" horiz-adv-x="889"
d="M479 294h321q0 77 -42.5 130.5t-117.5 53.5q-77 0 -119 -53t-42 -131zM799 166h63q-21 -87 -80 -134t-148 -47q-66 0 -117.5 34.5t-66.5 96.5h-2q-18 -64 -67 -97.5t-118 -33.5q-115 0 -171 77.5t-56 195.5q0 115 59.5 194t170.5 79q68 0 116 -31.5t68 -95.5h2
q21 58 71.5 92.5t118.5 34.5q113 0 167 -72.5t54 -217.5h-384q0 -83 41 -143t120 -60q122 0 159 128zM265 478q-62 0 -101 -37t-52 -86t-13 -109q0 -86 41 -147t124 -61q152 0 152 224q0 216 -151 216z" />
    <glyph glyph-name="Racute" unicode="&#x154;" horiz-adv-x="667"
d="M140 656v-281h254q65 0 109.5 38t44.5 101q0 67 -39 104.5t-115 37.5h-254zM72 0v714h327q94 0 155.5 -47t61.5 -139q0 -70 -36 -119t-103 -63v-2q66 -9 93.5 -49.5t31.5 -111.5q0 -3 1.5 -33t3 -44t4.5 -39t9 -41t15 -26h-75q-6 9 -9.5 25t-5 28.5t-2.5 32t-2 25.5
q-2 38 -4.5 61.5t-11 55t-23 49t-41 29.5t-63.5 11h-258v-317h-68zM468 921l-132 -141h-51l105 141h78z" />
    <glyph glyph-name="racute" unicode="&#x155;" horiz-adv-x="315"
d="M60 0v516h58v-121h2q24 64 75 97.5t120 30.5v-63q-84 4 -138 -49.5t-54 -135.5v-275h-63zM249 731l-132 -141h-51l105 141h78z" />
    <glyph glyph-name="Rcommaaccent" unicode="&#x156;" horiz-adv-x="667"
d="M140 656v-281h254q65 0 109.5 38t44.5 101q0 67 -39 104.5t-115 37.5h-254zM72 0v714h327q94 0 155.5 -47t61.5 -139q0 -70 -36 -119t-103 -63v-2q66 -9 93.5 -49.5t31.5 -111.5q0 -3 1.5 -33t3 -44t4.5 -39t9 -41t15 -26h-75q-6 9 -9.5 25t-5 28.5t-2.5 32t-2 25.5
q-2 38 -4.5 61.5t-11 55t-23 49t-41 29.5t-63.5 11h-258v-317h-68zM294 -50h86v-80q0 -69 -86 -73v28q36 7 39 34h-39v91z" />
    <glyph glyph-name="rcommaaccent" unicode="&#x157;" horiz-adv-x="315"
d="M60 0v516h58v-121h2q24 64 75 97.5t120 30.5v-63q-84 4 -138 -49.5t-54 -135.5v-275h-63zM50 -50h86v-80q0 -69 -86 -73v28q36 7 39 34h-39v91z" />
    <glyph glyph-name="Rcaron" unicode="&#x158;" horiz-adv-x="667"
d="M140 656v-281h254q65 0 109.5 38t44.5 101q0 67 -39 104.5t-115 37.5h-254zM72 0v714h327q94 0 155.5 -47t61.5 -139q0 -70 -36 -119t-103 -63v-2q66 -9 93.5 -49.5t31.5 -111.5q0 -3 1.5 -33t3 -44t4.5 -39t9 -41t15 -26h-75q-6 9 -9.5 25t-5 28.5t-2.5 32t-2 25.5
q-2 38 -4.5 61.5t-11 55t-23 49t-41 29.5t-63.5 11h-258v-317h-68zM275 780l-114 141h65l86 -102l88 102h58l-114 -141h-69z" />
    <glyph glyph-name="rcaron" unicode="&#x159;" horiz-adv-x="315"
d="M60 0v516h58v-121h2q24 64 75 97.5t120 30.5v-63q-84 4 -138 -49.5t-54 -135.5v-275h-63zM150 590l-114 141h65l86 -102l88 102h58l-114 -141h-69z" />
    <glyph glyph-name="Sacute" unicode="&#x15a;" horiz-adv-x="630"
d="M36 235h68q-4 -192 233 -192q41 0 82.5 13.5t74 48.5t32.5 83q0 94 -147 129l-159 39q-74 19 -117.5 57t-43.5 115q0 30 11 61.5t36 64.5t76.5 54t122.5 21q113 0 188.5 -58t75.5 -164h-68q-4 78 -59.5 121t-135.5 43q-78 0 -128.5 -34t-50.5 -108q0 -85 108 -109
l174 -43q87 -23 136 -65.5t49 -122.5q0 -20 -3.5 -40.5t-20 -52t-43.5 -54.5t-80.5 -40t-125.5 -17q-134 0 -212.5 62.5t-72.5 187.5zM460 921l-132 -141h-51l105 141h78z" />
    <glyph glyph-name="sacute" unicode="&#x15b;" horiz-adv-x="481"
d="M432 365h-63q-2 56 -40 84.5t-95 28.5q-49 0 -85.5 -21.5t-36.5 -67.5q0 -60 107 -87l84 -19q62 -9 104.5 -45t42.5 -98q0 -77 -62.5 -116t-144.5 -39q-196 0 -212 182h63q4 -62 45.5 -95.5t106.5 -33.5q54 0 97.5 24.5t43.5 73.5q0 41 -30 61t-83 33l-81 18
q-71 18 -107.5 48t-36.5 90q0 73 58 109t136 36q81 0 133 -42.5t56 -123.5zM394 731l-132 -141h-51l105 141h78z" />
    <glyph glyph-name="Scircumflex" unicode="&#x15c;" horiz-adv-x="630"
d="M36 235h68q-4 -192 233 -192q41 0 82.5 13.5t74 48.5t32.5 83q0 94 -147 129l-159 39q-74 19 -117.5 57t-43.5 115q0 30 11 61.5t36 64.5t76.5 54t122.5 21q113 0 188.5 -58t75.5 -164h-68q-4 78 -59.5 121t-135.5 43q-78 0 -128.5 -34t-50.5 -108q0 -85 108 -109
l174 -43q87 -23 136 -65.5t49 -122.5q0 -20 -3.5 -40.5t-20 -52t-43.5 -54.5t-80.5 -40t-125.5 -17q-134 0 -212.5 62.5t-72.5 187.5zM352 920l114 -141h-65l-86 102l-88 -102h-58l114 141h69z" />
    <glyph glyph-name="scircumflex" unicode="&#x15d;" horiz-adv-x="481"
d="M432 365h-63q-2 56 -40 84.5t-95 28.5q-49 0 -85.5 -21.5t-36.5 -67.5q0 -60 107 -87l84 -19q62 -9 104.5 -45t42.5 -98q0 -77 -62.5 -116t-144.5 -39q-196 0 -212 182h63q4 -62 45.5 -95.5t106.5 -33.5q54 0 97.5 24.5t43.5 73.5q0 41 -30 61t-83 33l-81 18
q-71 18 -107.5 48t-36.5 90q0 73 58 109t136 36q81 0 133 -42.5t56 -123.5zM280 730l114 -141h-65l-86 102l-88 -102h-58l114 141h69z" />
    <glyph glyph-name="Scedilla" unicode="&#x15e;" horiz-adv-x="630"
d="M36 235h68q-4 -192 233 -192q41 0 82.5 13.5t74 48.5t32.5 83q0 94 -147 129l-159 39q-74 19 -117.5 57t-43.5 115q0 30 11 61.5t36 64.5t76.5 54t122.5 21q113 0 188.5 -58t75.5 -164h-68q-4 78 -59.5 121t-135.5 43q-78 0 -128.5 -34t-50.5 -108q0 -85 108 -109
l174 -43q87 -23 136 -65.5t49 -122.5q0 -21 -5 -43t-20 -53.5t-51 -57t-89 -38.5q-43 -11 -105 -12l-32 -39q22 5 50 3q66 -11 66 -66q0 -42 -33.5 -64t-76.5 -22q-53 0 -94 21l14 32q34 -14 79 -14q53 0 53 43q0 17 -12.5 27.5t-30.5 10.5q-33 0 -51 -8l-16 15l49 62
q-42 3 -85 14q-82 21 -127 80.5t-41 154.5z" />
    <glyph glyph-name="Scedilla" unicode="&#xf6c1;" horiz-adv-x="630"
d="M36 235h68q-4 -192 233 -192q41 0 82.5 13.5t74 48.5t32.5 83q0 94 -147 129l-159 39q-74 19 -117.5 57t-43.5 115q0 30 11 61.5t36 64.5t76.5 54t122.5 21q113 0 188.5 -58t75.5 -164h-68q-4 78 -59.5 121t-135.5 43q-78 0 -128.5 -34t-50.5 -108q0 -85 108 -109
l174 -43q87 -23 136 -65.5t49 -122.5q0 -21 -5 -43t-20 -53.5t-51 -57t-89 -38.5q-43 -11 -105 -12l-32 -39q22 5 50 3q66 -11 66 -66q0 -42 -33.5 -64t-76.5 -22q-53 0 -94 21l14 32q34 -14 79 -14q53 0 53 43q0 17 -12.5 27.5t-30.5 10.5q-33 0 -51 -8l-16 15l49 62
q-42 3 -85 14q-82 21 -127 80.5t-41 154.5z" />
    <glyph glyph-name="scedilla" unicode="&#x15f;" horiz-adv-x="481"
d="M432 365h-63q-2 56 -40 84.5t-95 28.5q-49 0 -85.5 -21.5t-36.5 -67.5q0 -60 107 -87l84 -19q62 -9 104.5 -45t42.5 -98q0 -59 -38 -96.5t-96 -49.5q-33 -8 -64 -9l-32 -39q22 5 50 3q66 -11 66 -66q0 -42 -33.5 -64t-76.5 -22q-53 0 -94 21l14 32q34 -14 79 -14
q53 0 53 43q0 17 -12.5 27.5t-30.5 10.5q-33 0 -51 -8l-16 15l49 62q-72 4 -122 42q-56 44 -64 139h63q4 -62 45.5 -95.5t106.5 -33.5q54 0 97.5 24.5t43.5 73.5q0 41 -30 61t-83 33l-81 18q-71 18 -107.5 48t-36.5 90q0 73 58 109t136 36q81 0 133 -42.5t56 -123.5z" />
    <glyph glyph-name="scedilla" unicode="&#xf6c2;" horiz-adv-x="481"
d="M432 365h-63q-2 56 -40 84.5t-95 28.5q-49 0 -85.5 -21.5t-36.5 -67.5q0 -60 107 -87l84 -19q62 -9 104.5 -45t42.5 -98q0 -59 -38 -96.5t-96 -49.5q-33 -8 -64 -9l-32 -39q22 5 50 3q66 -11 66 -66q0 -42 -33.5 -64t-76.5 -22q-53 0 -94 21l14 32q34 -14 79 -14
q53 0 53 43q0 17 -12.5 27.5t-30.5 10.5q-33 0 -51 -8l-16 15l49 62q-72 4 -122 42q-56 44 -64 139h63q4 -62 45.5 -95.5t106.5 -33.5q54 0 97.5 24.5t43.5 73.5q0 41 -30 61t-83 33l-81 18q-71 18 -107.5 48t-36.5 90q0 73 58 109t136 36q81 0 133 -42.5t56 -123.5z" />
    <glyph glyph-name="Scaron" unicode="&#x160;" horiz-adv-x="630"
d="M36 235h68q-4 -192 233 -192q41 0 82.5 13.5t74 48.5t32.5 83q0 94 -147 129l-159 39q-74 19 -117.5 57t-43.5 115q0 30 11 61.5t36 64.5t76.5 54t122.5 21q113 0 188.5 -58t75.5 -164h-68q-4 78 -59.5 121t-135.5 43q-78 0 -128.5 -34t-50.5 -108q0 -85 108 -109
l174 -43q87 -23 136 -65.5t49 -122.5q0 -20 -3.5 -40.5t-20 -52t-43.5 -54.5t-80.5 -40t-125.5 -17q-134 0 -212.5 62.5t-72.5 187.5zM281 780l-114 141h65l86 -102l88 102h58l-114 -141h-69z" />
    <glyph glyph-name="scaron" unicode="&#x161;" horiz-adv-x="481"
d="M432 365h-63q-2 56 -40 84.5t-95 28.5q-49 0 -85.5 -21.5t-36.5 -67.5q0 -60 107 -87l84 -19q62 -9 104.5 -45t42.5 -98q0 -77 -62.5 -116t-144.5 -39q-196 0 -212 182h63q4 -62 45.5 -95.5t106.5 -33.5q54 0 97.5 24.5t43.5 73.5q0 41 -30 61t-83 33l-81 18
q-71 18 -107.5 48t-36.5 90q0 73 58 109t136 36q81 0 133 -42.5t56 -123.5zM211 590l-114 141h65l86 -102l88 102h58l-114 -141h-69z" />
    <glyph glyph-name="Tcommaaccent" unicode="&#x162;"
d="M-5 656v58h566v-58h-249v-656h-68v656h-249zM235 -50h86v-80q0 -69 -86 -73v28q36 7 39 34h-39v91z" />
    <glyph glyph-name="tcommaaccent" unicode="&#x163;" horiz-adv-x="296"
d="M160 671v-155h105v-53h-105v-348q0 -34 10 -50t41 -18q27 0 54 3v-54q-9 0 -28 -1t-28 -1q-63 0 -88 25t-24 91v353h-90v53h90v155h63zM136 -50h86v-80q0 -69 -86 -73v28q36 7 39 34h-39v91z" />
    <glyph glyph-name="Tcaron" unicode="&#x164;"
d="M-5 656v58h566v-58h-249v-656h-68v656h-249zM245 780l-114 141h65l86 -102l88 102h58l-114 -141h-69z" />
    <glyph glyph-name="tcaron" unicode="&#x165;" horiz-adv-x="332"
d="M384 714l-86 -141h-47l55 141h78zM160 671v-155h105v-53h-105v-348q0 -34 10 -50t41 -18q27 0 54 3v-54q-9 0 -28 -1t-28 -1q-63 0 -88 25t-24 91v353h-90v53h90v155h63z" />
    <glyph glyph-name="Tbar" unicode="&#x166;"
d="M-5 656v58h566v-58h-249v-170h165v-45h-165v-441h-68v441h-164v45h164v170h-249z" />
    <glyph glyph-name="tbar" unicode="&#x167;" horiz-adv-x="296"
d="M160 671v-155h105v-53h-105v-99h117v-45h-117v-204q0 -34 10 -50t41 -18q27 0 54 3v-54q-9 0 -28 -1t-28 -1q-63 0 -88 25t-24 91v209h-100v45h100v99h-90v53h90v155h63z" />
    <glyph glyph-name="Utilde" unicode="&#x168;" horiz-adv-x="685"
d="M65 257v457h68v-442q0 -120 53 -174.5t156 -54.5t156.5 54.5t53.5 174.5v442h68v-457q0 -120 -68.5 -196t-209.5 -76q-140 0 -208.5 76.5t-68.5 195.5zM461 900h38q-7 -39 -28.5 -67t-58.5 -28q-30 0 -75 23t-63 23q-38 0 -50 -51h-39q4 38 28 67t61 29q31 0 75 -22
t60 -22q38 0 52 48z" />
    <glyph glyph-name="utilde" unicode="&#x169;" horiz-adv-x="537"
d="M478 516v-516h-58v93h-2q-24 -51 -72 -79.5t-106 -28.5q-181 0 -181 196v335h63v-336q2 -72 33.5 -107t104.5 -35q76 0 115.5 60.5t39.5 146.5v271h63zM388 710h38q-7 -39 -28.5 -67t-58.5 -28q-29 0 -74.5 23t-63.5 23q-38 0 -50 -51h-39q4 38 28 67t61 29q31 0 75 -22
t60 -22q38 0 52 48z" />
    <glyph glyph-name="Umacron" unicode="&#x16a;" horiz-adv-x="685"
d="M65 257v457h68v-442q0 -120 53 -174.5t156 -54.5t156.5 54.5t53.5 174.5v442h68v-457q0 -120 -68.5 -196t-209.5 -76q-140 0 -208.5 76.5t-68.5 195.5zM505 828h-329v45h329v-45z" />
    <glyph glyph-name="umacron" unicode="&#x16b;" horiz-adv-x="537"
d="M478 516v-516h-58v93h-2q-24 -51 -72 -79.5t-106 -28.5q-181 0 -181 196v335h63v-336q2 -72 33.5 -107t104.5 -35q76 0 115.5 60.5t39.5 146.5v271h63zM435 638h-329v45h329v-45z" />
    <glyph glyph-name="Ubreve" unicode="&#x16c;" horiz-adv-x="685"
d="M65 257v457h68v-442q0 -120 53 -174.5t156 -54.5t156.5 54.5t53.5 174.5v442h68v-457q0 -120 -68.5 -196t-209.5 -76q-140 0 -208.5 76.5t-68.5 195.5zM197 914h39q2 -38 32.5 -60t70.5 -22t70 22t36 60h39q-8 -59 -46.5 -93t-98.5 -34q-61 0 -99 33.5t-43 93.5z" />
    <glyph glyph-name="ubreve" unicode="&#x16d;" horiz-adv-x="537"
d="M478 516v-516h-58v93h-2q-24 -51 -72 -79.5t-106 -28.5q-181 0 -181 196v335h63v-336q2 -72 33.5 -107t104.5 -35q76 0 115.5 60.5t39.5 146.5v271h63zM128 724h39q2 -38 32.5 -60t70.5 -22t70 22t36 60h39q-8 -59 -46.5 -93t-98.5 -34q-61 0 -99 33.5t-43 93.5z" />
    <glyph glyph-name="Uring" unicode="&#x16e;" horiz-adv-x="685"
d="M65 257v457h68v-442q0 -120 53 -174.5t156 -54.5t156.5 54.5t53.5 174.5v442h68v-457q0 -120 -68.5 -196t-209.5 -76q-140 0 -208.5 76.5t-68.5 195.5zM272 860q0 -29 19.5 -48.5t48.5 -19.5t48.5 19.5t19.5 48.5t-19.5 48.5t-48.5 19.5t-48.5 -19.5t-19.5 -48.5z
M233 860q0 44 31.5 75.5t75.5 31.5t75.5 -31.5t31.5 -75.5t-31.5 -75.5t-75.5 -31.5t-75.5 31.5t-31.5 75.5z" />
    <glyph glyph-name="uring" unicode="&#x16f;" horiz-adv-x="537"
d="M478 516v-516h-58v93h-2q-24 -51 -72 -79.5t-106 -28.5q-181 0 -181 196v335h63v-336q2 -72 33.5 -107t104.5 -35q76 0 115.5 60.5t39.5 146.5v271h63zM202 680q0 -29 19.5 -48.5t48.5 -19.5t48.5 19.5t19.5 48.5t-19.5 48.5t-48.5 19.5t-48.5 -19.5t-19.5 -48.5z
M163 680q0 44 31.5 75.5t75.5 31.5t75.5 -31.5t31.5 -75.5t-31.5 -75.5t-75.5 -31.5t-75.5 31.5t-31.5 75.5z" />
    <glyph glyph-name="Uhungarumlaut" unicode="&#x170;" horiz-adv-x="685"
d="M65 257v457h68v-442q0 -120 53 -174.5t156 -54.5t156.5 54.5t53.5 174.5v442h68v-457q0 -120 -68.5 -196t-209.5 -76q-140 0 -208.5 76.5t-68.5 195.5zM438 780h-51l101 141h76zM282 780h-51l101 141h76z" />
    <glyph glyph-name="uhungarumlaut" unicode="&#x171;" horiz-adv-x="537"
d="M478 516v-516h-58v93h-2q-24 -51 -72 -79.5t-106 -28.5q-181 0 -181 196v335h63v-336q2 -72 33.5 -107t104.5 -35q76 0 115.5 60.5t39.5 146.5v271h63zM370 590h-51l101 141h76zM214 590h-51l101 141h76z" />
    <glyph glyph-name="Uogonek" unicode="&#x172;" horiz-adv-x="685"
d="M65 257v457h68v-442q0 -120 53 -174.5t156 -54.5t156.5 54.5t53.5 174.5v442h68v-457q0 -187 -151 -250q-40 -16 -97 -21q-5 -4 -14 -12.5l-13 -12.5q-24 -25 -30.5 -41t-6.5 -37q0 -23 12.5 -35t31.5 -12q34 0 55 41l29 -13q-30 -67 -98 -67q-43 0 -67 22.5t-24 59.5
q0 35 45 78q12 12 36 28q-62 1 -113 22q-150 63 -150 250z" />
    <glyph glyph-name="uogonek" unicode="&#x173;" horiz-adv-x="537"
d="M478 0h-20q-52 -43 -67 -67t-15 -50q0 -23 12.5 -35t31.5 -12q34 0 55 41l29 -13q-30 -67 -98 -67q-43 0 -67 22.5t-24 59.5q0 57 105 121v93h-2q-24 -51 -72 -79.5t-106 -28.5q-181 0 -181 196v335h63v-336q2 -72 33.5 -107t104.5 -35q76 0 115.5 60.5t39.5 146.5v271
h63v-516z" />
    <glyph glyph-name="Wcircumflex" unicode="&#x174;" horiz-adv-x="907"
d="M198 0l-198 714h73l162 -625h2l174 625h85l175 -625h2l163 625h68l-197 -714h-72l-181 639h-2l-180 -639h-74zM489 920l114 -141h-65l-86 102l-88 -102h-58l114 141h69z" />
    <glyph glyph-name="wcircumflex" unicode="&#x175;" horiz-adv-x="741"
d="M174 0l-166 516h67l132 -442h2l126 442h71l126 -442h2l132 442h67l-166 -516h-69l-127 434h-2l-126 -434h-69zM405 730l114 -141h-65l-86 102l-88 -102h-58l114 141h69z" />
    <glyph glyph-name="Ycircumflex" unicode="&#x176;" horiz-adv-x="611"
d="M271 0v294l-281 420h81l235 -362l234 362h81l-282 -420v-294h-68zM345 920l114 -141h-65l-86 102l-88 -102h-58l114 141h69z" />
    <glyph glyph-name="ycircumflex" unicode="&#x177;" horiz-adv-x="463"
d="M208 2l-206 514h67l170 -440l159 440h63l-224 -595q-29 -68 -54 -90t-82 -22q-38 2 -48 5v53q25 -5 43 -5q20 0 34 5t24.5 18.5t15.5 23.5t16 34zM273 730l114 -141h-65l-86 102l-88 -102h-58l114 141h69z" />
    <glyph glyph-name="Ydieresis" unicode="&#x178;" horiz-adv-x="611"
d="M271 0v294l-281 420h81l235 -362l234 362h81l-282 -420v-294h-68zM251 800h-68v101h68v-101zM428 800h-68v101h68v-101z" />
    <glyph glyph-name="Zacute" unicode="&#x179;" horiz-adv-x="574"
d="M37 656v58h514v-60l-470 -596h480v-58h-556v60l470 596h-438zM438 921l-132 -141h-51l105 141h78z" />
    <glyph glyph-name="zacute" unicode="&#x17a;" horiz-adv-x="463"
d="M432 471l-341 -418h355v-53h-431v51l337 412h-314v53h394v-45zM384 731l-132 -141h-51l105 141h78z" />
    <glyph glyph-name="Zdotaccent" unicode="&#x17b;" horiz-adv-x="574"
d="M37 656v58h514v-60l-470 -596h480v-58h-556v60l470 596h-438zM327 800h-68v101h68v-101z" />
    <glyph glyph-name="zdotaccent" unicode="&#x17c;" horiz-adv-x="463"
d="M432 471l-341 -418h355v-53h-431v51l337 412h-314v53h394v-45zM267 610h-68v101h68v-101z" />
    <glyph glyph-name="Zcaron" unicode="&#x17d;" horiz-adv-x="574"
d="M37 656v58h514v-60l-470 -596h480v-58h-556v60l470 596h-438zM252 780l-114 141h65l86 -102l88 102h58l-114 -141h-69z" />
    <glyph glyph-name="zcaron" unicode="&#x17e;" horiz-adv-x="463"
d="M432 471l-341 -418h355v-53h-431v51l337 412h-314v53h394v-45zM197 590l-114 141h65l86 -102l88 102h58l-114 -141h-69z" />
    <glyph glyph-name="florin" unicode="&#x192;"
d="M7 -168l9 54q26 -6 52 -6q68 3 92 112l75 394h-100l9 53h101l13 69q23 99 37 128q38 78 133 78q27 0 62 -5l-12 -52q-20 4 -46 4q-16 -1 -29 -5.5t-22 -10t-17.5 -17t-13 -19.5t-9.5 -25t-7 -25t-6.5 -27.5t-5.5 -25.5l-14 -67h113l-9 -53h-113l-61 -323q-2 -8 -7 -35
t-7 -36.5t-8 -32.5t-10 -32l-12.5 -27.5t-17 -26l-21.5 -19t-27.5 -16t-33.5 -8t-42 -3.5q-17 0 -45 5z" />
    <glyph glyph-name="Scommaaccent" unicode="&#x218;" horiz-adv-x="630"
d="M36 235h68q-4 -192 233 -192q41 0 82.5 13.5t74 48.5t32.5 83q0 94 -147 129l-159 39q-74 19 -117.5 57t-43.5 115q0 30 11 61.5t36 64.5t76.5 54t122.5 21q113 0 188.5 -58t75.5 -164h-68q-4 78 -59.5 121t-135.5 43q-78 0 -128.5 -34t-50.5 -108q0 -85 108 -109
l174 -43q87 -23 136 -65.5t49 -122.5q0 -20 -3.5 -40.5t-20 -52t-43.5 -54.5t-80.5 -40t-125.5 -17q-134 0 -212.5 62.5t-72.5 187.5zM275 -50h86v-80q0 -69 -86 -73v28q36 7 39 34h-39v91z" />
    <glyph glyph-name="scommaaccent" unicode="&#x219;" horiz-adv-x="481"
d="M432 365h-63q-2 56 -40 84.5t-95 28.5q-49 0 -85.5 -21.5t-36.5 -67.5q0 -60 107 -87l84 -19q62 -9 104.5 -45t42.5 -98q0 -77 -62.5 -116t-144.5 -39q-196 0 -212 182h63q4 -62 45.5 -95.5t106.5 -33.5q54 0 97.5 24.5t43.5 73.5q0 41 -30 61t-83 33l-81 18
q-71 18 -107.5 48t-36.5 90q0 73 58 109t136 36q81 0 133 -42.5t56 -123.5zM199 -50h86v-80q0 -69 -86 -73v28q36 7 39 34h-39v91z" />
    <glyph glyph-name="uni021A" unicode="&#x21a;"
d="M-5 656v58h566v-58h-249v-656h-68v656h-249zM235 -50h86v-80q0 -69 -86 -73v28q36 7 39 34h-39v91z" />
    <glyph glyph-name="uni021B" unicode="&#x21b;" horiz-adv-x="296"
d="M160 671v-155h105v-53h-105v-348q0 -34 10 -50t41 -18q27 0 54 3v-54q-9 0 -28 -1t-28 -1q-63 0 -88 25t-24 91v353h-90v53h90v155h63zM136 -50h86v-80q0 -69 -86 -73v28q36 7 39 34h-39v91z" />
    <glyph glyph-name="circumflex" unicode="&#x2c6;" horiz-adv-x="185"
d="M130 730l114 -141h-65l-86 102l-88 -102h-58l114 141h69z" />
    <glyph glyph-name="caron" unicode="&#x2c7;" horiz-adv-x="185"
d="M54 590l-114 141h65l86 -102l88 102h58l-114 -141h-69z" />
    <glyph glyph-name="uni02C9" unicode="&#x2c9;" horiz-adv-x="185"
d="M257 638h-329v45h329v-45z" />
    <glyph glyph-name="breve" unicode="&#x2d8;" horiz-adv-x="185"
d="M-51 724h39q2 -38 32.5 -60t70.5 -22t70 22t36 60h39q-8 -59 -46.5 -93t-98.5 -34q-61 0 -99 33.5t-43 93.5z" />
    <glyph glyph-name="dotaccent" unicode="&#x2d9;" horiz-adv-x="185"
d="M127 610h-68v101h68v-101z" />
    <glyph glyph-name="ring" unicode="&#x2da;" horiz-adv-x="185"
d="M25 680q0 -29 19.5 -48.5t48.5 -19.5t48.5 19.5t19.5 48.5t-19.5 48.5t-48.5 19.5t-48.5 -19.5t-19.5 -48.5zM-14 680q0 44 31.5 75.5t75.5 31.5t75.5 -31.5t31.5 -75.5t-31.5 -75.5t-75.5 -31.5t-75.5 31.5t-31.5 75.5z" />
    <glyph glyph-name="ogonek" unicode="&#x2db;" horiz-adv-x="185"
d="M151 0h38q-52 -43 -67 -67t-15 -50q0 -23 12.5 -35t31.5 -12q34 0 55 41l29 -13q-30 -67 -98 -67q-43 0 -67 22.5t-24 59.5q0 57 105 121z" />
    <glyph glyph-name="tilde" unicode="&#x2dc;" horiz-adv-x="185"
d="M211 710h38q-7 -39 -28.5 -67t-58.5 -28q-30 0 -75 23t-63 23q-38 0 -50 -51h-39q4 38 28 67t61 29q31 0 75 -22t60 -22q38 0 52 48z" />
    <glyph glyph-name="hungarumlaut" unicode="&#x2dd;" horiz-adv-x="185"
d="M174 590h-51l101 141h76zM18 590h-51l101 141h76z" />
    <glyph glyph-name="uni0394" unicode="&#x394;" horiz-adv-x="674"
d="M550 72l-217 556l-213 -556h430zM662 0h-649l279 712h83z" />
    <glyph glyph-name="uni03A9" unicode="&#x3a9;" horiz-adv-x="748"
d="M688 0h-256v183q85 17 130.5 77.5t45.5 149.5q0 104 -68 171.5t-172 67.5q-103 0 -172 -68t-69 -171q0 -88 46.5 -150.5t130.5 -76.5v-183h-257v67h193v72q-90 25 -141.5 101t-51.5 173q0 133 94 220.5t227 87.5q134 0 227 -86.5t93 -219.5q0 -99 -50.5 -174.5
t-141.5 -101.5v-72h192v-67z" />
    <glyph glyph-name="uni03BC" unicode="&#x3bc;" horiz-adv-x="537"
d="M478 516v-516h-58v93h-2q-24 -51 -72 -79.5t-106 -28.5q-70 0 -117 35v-211h-64v707h63v-336q2 -72 33.5 -107t104.5 -35q76 0 115.5 60.5t39.5 146.5v271h63z" />
    <glyph glyph-name="pi" unicode="&#x3c0;" horiz-adv-x="570"
d="M547 68v-57q-36 -17 -69 -17q-29 0 -47.5 9t-26 27.5t-10 36.5t-2.5 47v296h-246v-410h-75v410h-69v69h541v-69h-76v-299q0 -26 7 -39.5t31 -13.5q21 0 42 10z" />
    <glyph glyph-name="endash" unicode="&#x2013;" horiz-adv-x="500"
d="M500 246h-500v58h500v-58z" />
    <glyph glyph-name="emdash" unicode="&#x2014;" horiz-adv-x="1000"
d="M870 246h-740v58h740v-58z" />
    <glyph glyph-name="quoteleft" unicode="&#x2018;" horiz-adv-x="278"
d="M179 471h-84v107q0 47 23 86t66 50v-43q-24 -9 -36.5 -38t-10.5 -56h42v-106z" />
    <glyph glyph-name="quoteright" unicode="&#x2019;" horiz-adv-x="278"
d="M99 714h84v-107q0 -47 -23 -86t-66 -50v43q24 7 37 37.5t10 56.5h-42v106z" />
    <glyph glyph-name="quotesinglbase" unicode="&#x201a;" horiz-adv-x="278"
d="M99 106h84v-107q0 -47 -23 -86t-66 -50v43q24 7 37 37.5t10 56.5h-42v106z" />
    <glyph glyph-name="quotedblleft" unicode="&#x201c;" horiz-adv-x="370"
d="M148 471h-84v107q0 47 23 86t66 50v-43q-24 -9 -36.5 -38t-10.5 -56h42v-106zM302 471h-84v107q0 47 23 86t66 50v-43q-24 -9 -36.5 -38t-10.5 -56h42v-106z" />
    <glyph glyph-name="quotedblright" unicode="&#x201d;" horiz-adv-x="370"
d="M68 714h84v-107q0 -47 -23 -86t-66 -50v43q24 7 37 37.5t10 56.5h-42v106zM222 714h84v-107q0 -47 -23 -86t-66 -50v43q24 7 37 37.5t10 56.5h-42v106z" />
    <glyph glyph-name="quotedblbase" unicode="&#x201e;" horiz-adv-x="370"
d="M68 106h84v-107q0 -47 -23 -86t-66 -50v43q24 7 37 37.5t10 56.5h-42v106zM222 106h84v-107q0 -47 -23 -86t-66 -50v43q24 7 37 37.5t10 56.5h-42v106z" />
    <glyph glyph-name="dagger" unicode="&#x2020;"
d="M246 440h-198v53h198v221h63v-221h199v-53h-199v-591h-63v591z" />
    <glyph glyph-name="daggerdbl" unicode="&#x2021;"
d="M246 47h-198v53h198v363h-198v53h198v198h63v-198h199v-53h-199v-363h199v-53h-199v-198h-63v198z" />
    <glyph glyph-name="bullet" unicode="&#x2022;" horiz-adv-x="500"
d="M72 357q0 74 52 126t126 52t126.5 -52t52.5 -126t-52.5 -126.5t-126.5 -52.5t-126 52.5t-52 126.5z" />
    <glyph glyph-name="ellipsis" unicode="&#x2026;" horiz-adv-x="1000"
d="M875 0h-84v106h84v-106zM542 0h-84v106h84v-106zM209 0h-84v106h84v-106z" />
    <glyph glyph-name="perthousand" unicode="&#x2030;" horiz-adv-x="1111"
d="M214 661q-96 0 -96 -124t96 -124t96 124t-96 124zM214 706q77 0 113 -46t36 -123t-36 -123t-113 -46t-113 46t-36 123t36 123t113 46zM901 278q-96 0 -96 -124t96 -124t96 124t-96 124zM901 323q77 0 113 -46t36 -123t-36 -123t-113 -46t-113 46t-36 123t36 123t113 46z
M547 278q-96 0 -96 -124t96 -124t96 124t-96 124zM547 323q77 0 113 -46t36 -123t-36 -123t-113 -46t-113 46t-36 123t36 123t113 46zM129 -34l453 759h47l-452 -759h-48z" />
    <glyph glyph-name="guilsinglleft" unicode="&#x2039;" horiz-adv-x="259"
d="M186 119l-133 125v62l133 125v-67l-94 -89l94 -89v-67z" />
    <glyph glyph-name="guilsinglright" unicode="&#x203a;" horiz-adv-x="259"
d="M73 119v67l94 89l-94 89v67l133 -125v-62z" />
    <glyph glyph-name="fraction" unicode="&#x2044;" horiz-adv-x="167"
d="M-166 -34l453 759h47l-452 -759h-48z" />
    <glyph glyph-name="Euro" unicode="&#x20ac;"
d="M557 635l-27 -59q-66 79 -160 79q-92 0 -150 -67q-51 -58 -69 -154h333l-18 -45h-321q-3 -25 -3 -43v-8q0 -5 1 -8h304l-19 -45h-282q13 -104 63 -169q60 -75 158 -75q52 0 96 23q35 20 78 63v-77q-77 -65 -176 -65q-125 0 -202 89q-67 79 -82 211h-66l19 45h44
q-1 3 -1 9v11q0 7 2 39h-64l18 45h51q22 123 92 196q76 82 195 82q124 0 186 -77z" />
    <glyph glyph-name="afii61289" unicode="&#x2113;" horiz-adv-x="500"
d="M406 38q-53 -52 -120 -52q-53 0 -86 31t-33 93v130l-59 -64h-2l-21 27l82 84v264q0 80 33.5 125t84.5 45q44 0 71.5 -33t27.5 -90q0 -141 -166 -321v-159q0 -50 23 -71t55 -21q46 0 88 39h2zM341 593q0 40 -16.5 65.5t-40.5 25.5q-28 0 -47 -32t-19 -94v-233
q123 145 123 268z" />
    <glyph glyph-name="trademark" unicode="&#x2122;" horiz-adv-x="990"
d="M529 302h-53v412h85l133 -334l129 334h85v-412h-53v364h-2l-146 -364h-30l-146 364h-2v-364zM269 302h-53v367h-134v45h321v-45h-134v-367z" />
    <glyph glyph-name="Omega" unicode="&#x2126;" horiz-adv-x="748"
d="M688 0h-256v183q85 17 130.5 77.5t45.5 149.5q0 104 -68 171.5t-172 67.5q-103 0 -172 -68t-69 -171q0 -88 46.5 -150.5t130.5 -76.5v-183h-257v67h193v72q-90 25 -141.5 101t-51.5 173q0 133 94 220.5t227 87.5q134 0 227 -86.5t93 -219.5q0 -99 -50.5 -174.5
t-141.5 -101.5v-72h192v-67z" />
    <glyph glyph-name="estimated" unicode="&#x212e;" horiz-adv-x="600"
d="M561 259h-404v-181q59 -59 145 -59q122 0 193 120l35 -21q-46 -72 -98 -103.5t-130 -31.5q-115 0 -186.5 79t-71.5 197q0 119 71 197.5t187 78.5q115 0 186.5 -77t72.5 -199zM157 295h291v145q-63 60 -147 60t-144 -60v-145z" />
    <glyph glyph-name="partialdiff" unicode="&#x2202;" horiz-adv-x="511"
d="M389 280q-63 85 -148 85q-63 0 -98.5 -45.5t-35.5 -109.5t35 -113t97 -49q52 0 87.5 41t49 91t13.5 100zM469 362q0 -52 -5 -98.5t-20 -99t-39.5 -89.5t-67.5 -62t-100 -25q-92 0 -148 66t-56 159q0 91 54.5 152.5t144.5 61.5q96 0 161 -76q0 7 0.5 22t0.5 23q0 44 -9 87
t-27.5 83.5t-54 66t-82.5 25.5q-53 0 -114 -47l-42 50q68 60 153 60q57 0 101.5 -22t72 -57.5t45.5 -84t25 -96.5t7 -99z" />
    <glyph glyph-name="Delta" unicode="&#x2206;" horiz-adv-x="674"
d="M550 72l-217 556l-213 -556h430zM662 0h-649l279 712h83z" />
    <glyph glyph-name="product" unicode="&#x220f;" horiz-adv-x="719"
d="M650 -214h-78v928h-426v-928h-78v1000h582v-1000z" />
    <glyph glyph-name="summation" unicode="&#x2211;" horiz-adv-x="615"
d="M589 -214h-564v64l322 440l-308 432v64h538v-72h-437l301 -424l-319 -432h467v-72z" />
    <glyph glyph-name="minus" unicode="&#x2212;" horiz-adv-x="600"
d="M552 278v-53h-503v53h503z" />
    <glyph glyph-name="uni2215" unicode="&#x2215;" horiz-adv-x="167"
d="M-166 -34l453 759h47l-452 -759h-48z" />
    <glyph glyph-name="uni2219" unicode="&#x2219;" horiz-adv-x="278"
d="M139 375q24 0 41.5 -18t17.5 -42q0 -23 -18 -40.5t-41 -17.5q-24 0 -41.5 18t-17.5 42q0 23 18 40.5t41 17.5z" />
    <glyph glyph-name="radical" unicode="&#x221a;" horiz-adv-x="504"
d="M514 786l-211 -1000h-75l-162 334l-47 -22l-28 60l112 52l151 -317l184 893h76z" />
    <glyph glyph-name="infinity" unicode="&#x221e;" horiz-adv-x="759"
d="M337 251q-29 27 -45 40.5t-48 31.5t-57 18q-37 0 -58.5 -26t-21.5 -63q0 -39 22 -62.5t61 -23.5q62 0 147 85zM652 252q0 40 -21.5 65t-60.5 25q-12 0 -23.5 -3t-24 -9.5l-21.5 -11.5t-22.5 -16.5l-19 -16.5l-20 -18.5t-16.5 -15.5q32 -30 46 -42t44.5 -27.5t59.5 -15.5
q37 0 58 24.5t21 61.5zM717 255q0 -68 -40 -112.5t-107 -44.5q-87 0 -190 109q-3 -3 -23.5 -21.5t-26 -23l-23 -18.5t-28 -19l-26.5 -13t-31.5 -10.5t-32.5 -2.5q-66 0 -106.5 43t-40.5 110q0 66 39.5 111t105.5 45q38 0 76.5 -20t58.5 -38t58 -56l17.5 17.5t19 18.5t18 17
t20 17.5l19.5 14t22.5 13.5l22 9t25 7t25.5 2q66 0 107 -44t41 -111z" />
    <glyph glyph-name="integral" unicode="&#x222b;" horiz-adv-x="554"
d="M420 730q0 -17 -12 -27.5t-30 -10.5t-34 21.5t-22 21.5q-8 0 -14.5 -7t-9.5 -18.5t-5 -25t-2 -29v-27t0.5 -22.5t0.5 -12l1 -39v-511q0 -119 -15 -167q-27 -90 -111 -90q-26 0 -47.5 13.5t-21.5 38.5q0 14 11.5 25t25.5 11q18 0 32.5 -21t19.5 -21q7 0 12.5 7.5t8.5 20.5
t5 27.5t2.5 31.5t0.5 28.5v23.5l-1 12v22v495q0 9 -0.5 39t-0.5 46.5t2 46t6.5 47.5t14 40.5t23 35t34 21.5t47.5 9q31 0 55 -14t24 -42z" />
    <glyph glyph-name="approxequal" unicode="&#x2248;" horiz-adv-x="593"
d="M510 234h50q-7 -63 -38.5 -104t-90.5 -41q-45 0 -143 36t-129 36t-51 -23t-24 -55h-52q23 148 129 148q44 0 139.5 -35.5t134.5 -35.5q60 0 75 74zM511 415h50q-7 -63 -39 -104.5t-91 -41.5q-46 0 -143 35.5t-128 35.5q-30 0 -50 -22.5t-26 -54.5h-51q7 62 38.5 105
t90.5 43q44 0 139.5 -35.5t134.5 -35.5q60 0 75 75z" />
    <glyph glyph-name="notequal" unicode="&#x2260;" horiz-adv-x="593"
d="M550 114h-287l-76 -146l-62 32l59 114h-141v72h178l67 127h-245v71h283l77 148l62 -32l-61 -116h146v-71h-183l-67 -127h250v-72z" />
    <glyph glyph-name="lessequal" unicode="&#x2264;" horiz-adv-x="593"
d="M550 -30h-507v72h507v-72zM550 82l-507 184v75l507 187v-78l-408 -146l408 -145v-77z" />
    <glyph glyph-name="greaterequal" unicode="&#x2265;" horiz-adv-x="593"
d="M550 -30h-507v72h507v-72zM550 266l-507 -184v77l408 145l-408 146v78l507 -187v-75z" />
    <glyph glyph-name="lozenge" unicode="&#x25ca;" horiz-adv-x="593"
d="M428 356l-132 315l-131 -315l131 -315zM504 356l-172 -391h-72l-171 391l171 391h72z" />
    <glyph glyph-name="commaaccent" unicode="&#xf004;" horiz-adv-x="278"
d="M97 -50h86v-80q0 -69 -86 -73v28q36 7 39 34h-39v91z" />
    <glyph glyph-name="commaaccent" unicode="&#xf6c3;" horiz-adv-x="278"
d="M97 -50h86v-80q0 -69 -86 -73v28q36 7 39 34h-39v91z" />
    <glyph glyph-name="dotlessj" unicode="&#xf6be;" horiz-adv-x="185"
d="M61 -63v579h63v-564q0 -143 -110 -143q-8 0 -22 1t-22 1v52q22 -2 34 -1q34 0 45.5 19t11.5 56z" />
    <glyph glyph-name="dotlessj" unicode="&#xfb0f;" horiz-adv-x="185"
d="M61 -63v579h63v-564q0 -143 -110 -143q-8 0 -22 1t-22 1v52q22 -2 34 -1q34 0 45.5 19t11.5 56z" />
    <glyph glyph-name="uniF8FF" unicode="&#xf8ff;" horiz-adv-x="512"
d="M222 117h56v67h-56v-67zM225 234h46q0 52 6 72q6 19 43 52q37 34 50 60t13 60q0 59 -35 95t-89 36q-56 0 -92 -34t-43 -103l50 -8q11 95 82 95q31 0 53.5 -24.5t22.5 -60.5q0 -20 -9.5 -37t-40.5 -46q-31 -31 -46 -59q-13 -25 -13 -81zM462 50h-412v617h412v-617z
M512 718h-512v-718h512v718z" />
    <glyph glyph-name="caron.alt" horiz-adv-x="185"
d="M221 714l-86 -141h-47l55 141h78z" />
    <glyph glyph-name="commaaccent.alt" horiz-adv-x="278"
d="M180 623h-86v80q0 69 86 73v-28q-36 -7 -39 -34h39v-91z" />
    <glyph glyph-name="grave.cap" horiz-adv-x="185"
d="M101 778l-132 141h78l105 -141h-51z" />
    <glyph glyph-name="acute.cap" horiz-adv-x="185"
d="M216 919l-132 -141h-51l105 141h78z" />
    <glyph glyph-name="circumflex.cap" horiz-adv-x="185"
d="M130 919l114 -141h-65l-86 102l-88 -102h-58l114 141h69z" />
    <glyph glyph-name="caron.cap" horiz-adv-x="185"
d="M54 778l-114 141h65l86 -102l88 102h58l-114 -141h-69z" />
    <glyph glyph-name="tilde.cap" horiz-adv-x="185"
d="M211 710h38q-7 -39 -28.5 -67t-58.5 -28q-30 0 -75 23t-63 23q-38 0 -50 -51h-39q4 38 28 67t61 29q31 0 75 -22t60 -22q38 0 52 48z" />
    <glyph glyph-name="dieresis.cap" horiz-adv-x="185"
d="M38 800h-68v101h68v-101zM215 800h-68v101h68v-101z" />
    <glyph glyph-name="macron.cap" horiz-adv-x="185"
d="M257 828h-329v45h329v-45z" />
    <glyph glyph-name="breve.cap" horiz-adv-x="185"
d="M-51 914h39q2 -38 32.5 -60t70.5 -22t70 22t36 60h39q-8 -59 -46.5 -93t-98.5 -34q-61 0 -99 33.5t-43 93.5z" />
    <glyph glyph-name="ring.cap" horiz-adv-x="185"
d="M25 860q0 -29 19.5 -48.5t48.5 -19.5t48.5 19.5t19.5 48.5t-19.5 48.5t-48.5 19.5t-48.5 -19.5t-19.5 -48.5zM-14 860q0 44 31.5 75.5t75.5 31.5t75.5 -31.5t31.5 -75.5t-31.5 -75.5t-75.5 -31.5t-75.5 31.5t-31.5 75.5z" />
    <glyph glyph-name="hungarumlaut.cap" horiz-adv-x="185"
d="M174 782h-51l101 141h76zM18 782h-51l101 141h76z" />
    <glyph glyph-name="dotaccent.cap" horiz-adv-x="185"
d="M127 800h-68v101h68v-101z" />
    </font>
</defs>
</svg>
